<?xml version="1.0" encoding="UTF-8"?>
<!DOCTYPE svg PUBLIC "-//W3C//DTD SVG 1.1//EN" "http://www.w3.org/Graphics/SVG/1.1/DTD/svg11.dtd">
<svg xmlns="http://www.w3.org/2000/svg" version="1.1" width="300px" height="200px" style="shape-rendering:geometricPrecision; text-rendering:geometricPrecision; image-rendering:optimizeQuality; fill-rule:evenodd; clip-rule:evenodd" xmlns:xlink="http://www.w3.org/1999/xlink">
<g><path style="opacity:1" fill="#fefefe" d="M -0.5,-0.5 C 99.5,-0.5 199.5,-0.5 299.5,-0.5C 299.5,66.1667 299.5,132.833 299.5,199.5C 199.5,199.5 99.5,199.5 -0.5,199.5C -0.5,132.833 -0.5,66.1667 -0.5,-0.5 Z"/></g>
<g><path style="opacity:1" fill="#fbfdfd" d="M 189.5,51.5 C 189.815,47.6286 189.482,43.9619 188.5,40.5C 178.992,39.8334 169.325,39.1667 159.5,38.5C 161.5,37.6667 163.5,36.8333 165.5,36C 171.5,35.3333 177.5,35.3333 183.5,36C 187.583,38.1048 191.917,39.4382 196.5,40C 199.024,43.7732 202.358,44.9398 206.5,43.5C 207.021,47.5199 209.188,50.1865 213,51.5C 217.048,55.8797 220.715,60.5463 224,65.5C 224.667,66.5 224.667,67.5 224,68.5C 221.219,65.1951 217.719,63.5285 213.5,63.5C 213.5,62.1667 213.5,60.8333 213.5,59.5C 210.104,58.4048 207.104,56.5715 204.5,54C 199.692,52.1067 194.692,51.2734 189.5,51.5 Z"/></g>
<g><path style="opacity:1" fill="#a8c0d2" d="M 104.5,40.5 C 132.5,40.5 160.5,40.5 188.5,40.5C 189.482,43.9619 189.815,47.6286 189.5,51.5C 189.5,55.5 189.5,59.5 189.5,63.5C 188.833,63.5 188.167,63.5 187.5,63.5C 187.823,56.9779 187.49,50.6446 186.5,44.5C 186.5,43.5 186.5,42.5 186.5,41.5C 161.328,41.169 136.328,41.5023 111.5,42.5C 109.5,42.5 107.5,42.5 105.5,42.5C 105.5,54.8333 105.5,67.1667 105.5,79.5C 104.833,79.5 104.167,79.5 103.5,79.5C 103.5,69.5 103.5,59.5 103.5,49.5C 103.19,46.2869 103.523,43.2869 104.5,40.5 Z"/></g>
<g><path style="opacity:1" fill="#bad7f1" d="M 186.5,44.5 C 186.5,45.5 186.5,46.5 186.5,47.5C 166.822,47.833 147.155,47.4996 127.5,46.5C 124.544,44.9679 121.544,44.6346 118.5,45.5C 115.655,45.2343 113.322,44.2343 111.5,42.5C 136.328,41.5023 161.328,41.169 186.5,41.5C 186.5,42.5 186.5,43.5 186.5,44.5 Z"/></g>
<g><path style="opacity:1" fill="#eaf0f9" d="M 242.5,140.5 C 242.5,141.5 242.5,142.5 242.5,143.5C 241.5,143.5 240.5,143.5 239.5,143.5C 239.444,140.606 238.61,137.939 237,135.5C 236.829,130.136 236.329,124.802 235.5,119.5C 231.713,117.974 228.213,115.974 225,113.5C 218.83,115.353 214.663,113.186 212.5,107C 210.613,106.22 208.946,106.387 207.5,107.5C 205.031,110.197 203.531,109.531 203,105.5C 201.933,104.809 200.766,104.309 199.5,104C 202.118,102.026 201.952,100.193 199,98.5C 198.333,99.1667 197.667,99.8333 197,100.5C 196.997,96.1178 194.831,94.4511 190.5,95.5C 189.466,88.203 189.133,77.5363 189.5,63.5C 189.5,59.5 189.5,55.5 189.5,51.5C 194.692,51.2734 199.692,52.1067 204.5,54C 207.104,56.5715 210.104,58.4048 213.5,59.5C 213.5,60.8333 213.5,62.1667 213.5,63.5C 217.719,63.5285 221.219,65.1951 224,68.5C 224.667,67.5 224.667,66.5 224,65.5C 220.715,60.5463 217.048,55.8797 213,51.5C 209.188,50.1865 207.021,47.5199 206.5,43.5C 202.358,44.9398 199.024,43.7732 196.5,40C 191.917,39.4382 187.583,38.1048 183.5,36C 177.5,35.3333 171.5,35.3333 165.5,36C 163.5,36.8333 161.5,37.6667 159.5,38.5C 169.325,39.1667 178.992,39.8334 188.5,40.5C 160.5,40.5 132.5,40.5 104.5,40.5C 114.653,39.5058 124.986,39.1724 135.5,39.5C 135.423,36.9876 136.423,34.9876 138.5,33.5C 147.614,26.0743 158.114,22.741 170,23.5C 204.657,30.0085 227.657,50.0085 239,83.5C 239.499,87.4862 239.666,91.4862 239.5,95.5C 240.833,95.5 242.167,95.5 243.5,95.5C 245.207,106.101 245.707,116.767 245,127.5C 244.438,131.52 243.271,135.353 241.5,139C 241.57,139.765 241.903,140.265 242.5,140.5 Z"/></g>
<g><path style="opacity:1" fill="#c5ddee" d="M 111.5,42.5 C 113.322,44.2343 115.655,45.2343 118.5,45.5C 121.544,44.6346 124.544,44.9679 127.5,46.5C 147.155,47.4996 166.822,47.833 186.5,47.5C 186.5,46.5 186.5,45.5 186.5,44.5C 187.49,50.6446 187.823,56.9779 187.5,63.5C 187.167,84.8437 187.5,106.177 188.5,127.5C 189.412,123.867 190.079,120.2 190.5,116.5C 191.5,116.5 192.5,116.5 193.5,116.5C 193.703,118.39 193.037,119.89 191.5,121C 196.07,121.55 196.403,122.717 192.5,124.5C 193.5,125.167 194.5,125.833 195.5,126.5C 194.456,128.768 194.289,131.101 195,133.5C 195.308,132.692 195.808,132.025 196.5,131.5C 197.846,133.013 199.346,134.347 201,135.5C 202.826,134.327 204.659,134.327 206.5,135.5C 203.5,137.833 200.833,140.5 198.5,143.5C 196.241,144.344 195.241,146.011 195.5,148.5C 193.5,148.5 191.5,148.5 189.5,148.5C 189.785,146.712 189.452,145.045 188.5,143.5C 187.507,148.12 187.173,152.786 187.5,157.5C 178.167,157.5 168.833,157.5 159.5,157.5C 159.5,157.167 159.5,156.833 159.5,156.5C 168.5,156.5 177.5,156.5 186.5,156.5C 186.5,120.5 186.5,84.5 186.5,48.5C 159.833,48.5 133.167,48.5 106.5,48.5C 106.5,82.1667 106.5,115.833 106.5,149.5C 105.566,148.432 105.232,147.099 105.5,145.5C 105.5,123.5 105.5,101.5 105.5,79.5C 105.5,67.1667 105.5,54.8333 105.5,42.5C 107.5,42.5 109.5,42.5 111.5,42.5 Z"/></g>
<g><path style="opacity:1" fill="#e8effa" d="M 103.5,49.5 C 103.5,59.5 103.5,69.5 103.5,79.5C 103.5,87.5 103.5,95.5 103.5,103.5C 102.5,103.5 101.5,103.5 100.5,103.5C 96.7846,103.196 93.2846,103.863 90,105.5C 89.6848,104.092 90.0181,102.759 91,101.5C 92.803,100.687 94.303,99.5199 95.5,98C 94.0528,96.3343 92.7194,94.5009 91.5,92.5C 90.5344,90.604 90.2011,88.604 90.5,86.5C 88.4626,84.7251 85.796,83.3918 82.5,82.5C 80.2275,83.3751 79.2275,85.0418 79.5,87.5C 78.5,87.5 77.5,87.5 76.5,87.5C 76.4921,90.5448 76.1587,93.5448 75.5,96.5C 78.1398,96.954 80.4732,98.1207 82.5,100C 79.2228,99.7988 75.8895,99.6321 72.5,99.5C 73.3388,108.851 73.5055,118.185 73,127.5C 73.956,128.579 74.7894,129.745 75.5,131C 85.9956,132.736 85.9956,133.57 75.5,133.5C 75.3505,134.552 75.5172,135.552 76,136.5C 80.7962,139.457 84.2962,143.457 86.5,148.5C 87.4137,151.728 87.7471,155.061 87.5,158.5C 85.8333,158.5 84.1667,158.5 82.5,158.5C 82.6567,159.873 82.49,161.207 82,162.5C 78.3445,156.685 76.3445,150.352 76,143.5C 75.4818,140.977 74.1485,138.977 72,137.5C 72.264,132.23 70.764,127.564 67.5,123.5C 65.2573,122.526 62.924,122.192 60.5,122.5C 60.1076,129.413 59.1076,136.246 57.5,143C 57.8703,144.896 58.037,146.729 58,148.5C 55.843,145.344 53.343,142.511 50.5,140C 48.5273,139.505 46.5273,139.338 44.5,139.5C 43.9159,142.983 44.7492,145.983 47,148.5C 47.49,149.793 47.6567,151.127 47.5,152.5C 46.1932,151.847 44.8599,151.18 43.5,150.5C 42.7113,147.354 42.0446,144.187 41.5,141C 41.9504,139.715 42.6171,138.548 43.5,137.5C 43.2907,136.914 42.9574,136.414 42.5,136C 45.7008,136.329 48.8674,137.162 52,138.5C 52.772,138.355 53.4387,138.022 54,137.5C 52.5774,129.962 52.2441,122.295 53,114.5C 54.7565,107.98 56.9232,101.647 59.5,95.5C 60.8333,95.5 62.1667,95.5 63.5,95.5C 63.3398,93.8008 63.5065,92.1341 64,90.5C 66.8637,87.6447 70.0303,85.1447 73.5,83C 82.6931,77.4242 92.3598,72.9242 102.5,69.5C 102.176,62.6457 102.509,55.979 103.5,49.5 Z"/></g>
<g><path style="opacity:1" fill="#c3ddf2" d="M 100.5,103.5 C 100.644,111.51 100.977,119.51 101.5,127.5C 100.902,131.171 99.9018,134.838 98.5,138.5C 97.6685,130.855 97.1685,123.188 97,115.5C 95.6463,119.363 95.1463,123.363 95.5,127.5C 93.8333,127.5 92.1667,127.5 90.5,127.5C 90.5,122.167 90.5,116.833 90.5,111.5C 89.5,111.5 88.5,111.5 87.5,111.5C 87.7734,123.871 87.44,136.204 86.5,148.5C 84.2962,143.457 80.7962,139.457 76,136.5C 75.5172,135.552 75.3505,134.552 75.5,133.5C 85.9956,133.57 85.9956,132.736 75.5,131C 74.7894,129.745 73.956,128.579 73,127.5C 73.5055,118.185 73.3388,108.851 72.5,99.5C 75.8895,99.6321 79.2228,99.7988 82.5,100C 80.4732,98.1207 78.1398,96.954 75.5,96.5C 76.1587,93.5448 76.4921,90.5448 76.5,87.5C 77.5,87.5 78.5,87.5 79.5,87.5C 79.2275,85.0418 80.2275,83.3751 82.5,82.5C 85.796,83.3918 88.4626,84.7251 90.5,86.5C 90.2011,88.604 90.5344,90.604 91.5,92.5C 92.7194,94.5009 94.0528,96.3343 95.5,98C 94.303,99.5199 92.803,100.687 91,101.5C 90.0181,102.759 89.6848,104.092 90,105.5C 93.2846,103.863 96.7846,103.196 100.5,103.5 Z"/></g>
<g><path style="opacity:1" fill="#a9c5e5" d="M 103.5,79.5 C 104.167,79.5 104.833,79.5 105.5,79.5C 105.5,101.5 105.5,123.5 105.5,145.5C 104.265,145.279 103.265,144.612 102.5,143.5C 101.505,138.208 101.172,132.875 101.5,127.5C 100.977,119.51 100.644,111.51 100.5,103.5C 101.5,103.5 102.5,103.5 103.5,103.5C 103.5,95.5 103.5,87.5 103.5,79.5 Z"/></g>
<g><path style="opacity:1" fill="#a5c8e6" d="M 187.5,63.5 C 188.167,63.5 188.833,63.5 189.5,63.5C 189.133,77.5363 189.466,88.203 190.5,95.5C 194.831,94.4511 196.997,96.1178 197,100.5C 197.667,99.8333 198.333,99.1667 199,98.5C 201.952,100.193 202.118,102.026 199.5,104C 200.766,104.309 201.933,104.809 203,105.5C 203.531,109.531 205.031,110.197 207.5,107.5C 208.833,107.5 210.167,107.5 211.5,107.5C 211.613,110.049 210.946,112.382 209.5,114.5C 209.833,114.833 210.167,115.167 210.5,115.5C 214.402,114.792 218.068,114.792 221.5,115.5C 221.5,116.833 221.5,118.167 221.5,119.5C 220.504,119.586 219.671,119.252 219,118.5C 218.798,120.256 218.298,121.922 217.5,123.5C 216.686,121.234 216.186,118.9 216,116.5C 214.969,117.7 214.135,119.034 213.5,120.5C 215.518,126.102 213.518,128.435 207.5,127.5C 207.552,131.198 207.886,134.865 208.5,138.5C 207.833,137.5 207.167,136.5 206.5,135.5C 204.659,134.327 202.826,134.327 201,135.5C 199.346,134.347 197.846,133.013 196.5,131.5C 195.808,132.025 195.308,132.692 195,133.5C 194.289,131.101 194.456,128.768 195.5,126.5C 194.5,125.833 193.5,125.167 192.5,124.5C 196.403,122.717 196.07,121.55 191.5,121C 193.037,119.89 193.703,118.39 193.5,116.5C 192.5,116.5 191.5,116.5 190.5,116.5C 190.079,120.2 189.412,123.867 188.5,127.5C 187.5,106.177 187.167,84.8437 187.5,63.5 Z"/></g>
<g><path style="opacity:1" fill="#94badd" d="M 221.5,119.5 C 221.435,119.938 221.601,120.272 222,120.5C 223,117.36 225.167,116.027 228.5,116.5C 228.919,119.325 227.919,121.491 225.5,123C 226.793,123.49 228.127,123.657 229.5,123.5C 229.5,124.833 229.5,126.167 229.5,127.5C 226.813,127.336 224.146,127.503 221.5,128C 222.759,128.923 224.092,129.757 225.5,130.5C 223.138,130.974 220.805,131.308 218.5,131.5C 220.078,132.298 221.744,132.798 223.5,133C 224.451,133.718 224.617,134.551 224,135.5C 222.542,136.747 221.042,136.747 219.5,135.5C 219.598,136.616 219.098,137.616 218,138.5C 216.739,138.241 215.739,137.574 215,136.5C 214.764,138.119 213.931,139.119 212.5,139.5C 211.432,138.566 210.099,138.232 208.5,138.5C 207.886,134.865 207.552,131.198 207.5,127.5C 213.518,128.435 215.518,126.102 213.5,120.5C 214.135,119.034 214.969,117.7 216,116.5C 216.186,118.9 216.686,121.234 217.5,123.5C 218.298,121.922 218.798,120.256 219,118.5C 219.671,119.252 220.504,119.586 221.5,119.5 Z"/></g>
<g><path style="opacity:1" fill="#e6a28b" d="M 109.5,73.5 C 121.833,73.5 134.167,73.5 146.5,73.5C 146.5,75.5 146.5,77.5 146.5,79.5C 146.167,79.5 145.833,79.5 145.5,79.5C 145.714,77.8561 145.38,76.3561 144.5,75C 133.505,74.5002 122.505,74.3335 111.5,74.5C 111.5,75.5 111.5,76.5 111.5,77.5C 110.293,103.673 110.293,130.006 111.5,156.5C 118.175,156.666 124.842,156.5 131.5,156C 132.582,154.67 133.249,153.17 133.5,151.5C 134.291,153.309 134.291,155.309 133.5,157.5C 133.5,158.167 133.5,158.833 133.5,159.5C 129.925,158.243 126.092,157.576 122,157.5C 117.715,157.636 113.548,158.303 109.5,159.5C 107.197,159.124 106.863,158.124 108.5,156.5C 109.498,129.005 109.831,101.338 109.5,73.5 Z"/></g>
<g><path style="opacity:1" fill="#b7d3ed" d="M 101.5,127.5 C 101.172,132.875 101.505,138.208 102.5,143.5C 103.265,144.612 104.265,145.279 105.5,145.5C 105.232,147.099 105.566,148.432 106.5,149.5C 106.5,151.833 106.5,154.167 106.5,156.5C 105.5,156.5 104.5,156.5 103.5,156.5C 103.799,154.396 103.466,152.396 102.5,150.5C 99.5326,151.804 97.1992,153.804 95.5,156.5C 95.5,157.5 95.5,158.5 95.5,159.5C 94.5,159.5 93.5,159.5 92.5,159.5C 92.2912,153.739 91.4578,153.406 90,158.5C 89.0228,159.774 88.1894,159.774 87.5,158.5C 87.7471,155.061 87.4137,151.728 86.5,148.5C 87.44,136.204 87.7734,123.871 87.5,111.5C 88.5,111.5 89.5,111.5 90.5,111.5C 90.5,116.833 90.5,122.167 90.5,127.5C 92.1667,127.5 93.8333,127.5 95.5,127.5C 95.1463,123.363 95.6463,119.363 97,115.5C 97.1685,123.188 97.6685,130.855 98.5,138.5C 99.9018,134.838 100.902,131.171 101.5,127.5 Z"/></g>
<g><path style="opacity:1" fill="#566a9e" d="M 143.5,123.5 C 146.833,123.5 150.167,123.5 153.5,123.5C 153.5,126.833 153.5,130.167 153.5,133.5C 153.167,133.5 152.833,133.5 152.5,133.5C 152.5,131.5 152.5,129.5 152.5,127.5C 151.5,127.5 150.5,127.5 149.5,127.5C 149.334,131.846 149.501,136.179 150,140.5C 150.236,142.119 151.069,143.119 152.5,143.5C 153.059,147.853 153.725,152.186 154.5,156.5C 155.167,159.167 155.833,161.833 156.5,164.5C 153.562,164.727 151.229,163.727 149.5,161.5C 149.483,159.435 149.15,157.435 148.5,155.5C 147.5,154.167 146.5,152.833 145.5,151.5C 145.5,151.167 145.5,150.833 145.5,150.5C 144.195,143.756 143.195,137.089 142.5,130.5C 142.5,130.167 142.5,129.833 142.5,129.5C 144.137,133.141 145.303,137.141 146,141.5C 147.264,135.979 148.097,130.312 148.5,124.5C 146.585,124.784 144.919,124.451 143.5,123.5 Z"/></g>
<g><path style="opacity:1" fill="#eff7f9" d="M 159.5,156.5 C 157.833,156.5 156.167,156.5 154.5,156.5C 153.725,152.186 153.059,147.853 152.5,143.5C 152.5,140.167 152.5,136.833 152.5,133.5C 152.833,133.5 153.167,133.5 153.5,133.5C 155.5,133.5 157.5,133.5 159.5,133.5C 164.64,134.488 169.974,134.821 175.5,134.5C 175.5,135.5 175.5,136.5 175.5,137.5C 154.167,138.167 154.167,138.833 175.5,139.5C 175.5,140.5 175.5,141.5 175.5,142.5C 170.156,142.334 164.823,142.501 159.5,143C 165.157,143.499 170.824,143.666 176.5,143.5C 176.833,135.5 177.167,135.5 177.5,143.5C 178.5,143.5 179.5,143.5 180.5,143.5C 181.001,127.547 181.001,111.547 180.5,95.5C 180.564,83.7624 181.23,72.0958 182.5,60.5C 182.16,58.4878 181.827,56.4878 181.5,54.5C 178.495,54.2501 176.662,55.5834 176,58.5C 175.503,56.1902 175.337,53.8568 175.5,51.5C 159.36,52.0289 143.36,52.0289 127.5,51.5C 127.5,52.8333 127.5,54.1667 127.5,55.5C 126.518,58.9619 126.185,62.6286 126.5,66.5C 130.882,65.7404 135.216,65.5738 139.5,66C 142.077,62.5954 142.077,59.262 139.5,56C 134.005,55.332 131.671,57.832 132.5,63.5C 131.167,63.5 129.833,63.5 128.5,63.5C 128.5,60.8333 128.5,58.1667 128.5,55.5C 138.812,54.694 149.145,54.0273 159.5,53.5C 163.918,53.5318 167.918,54.5318 171.5,56.5C 170.833,59.1667 170.167,61.8333 169.5,64.5C 171.792,64.7564 173.959,64.4231 176,63.5C 176.667,65.1667 176.667,66.8333 176,68.5C 175.692,67.6919 175.192,67.0253 174.5,66.5C 171.966,67.7883 169.466,67.7883 167,66.5C 166.517,67.448 166.351,68.448 166.5,69.5C 177.972,70.0681 178.139,70.7348 167,71.5C 162.147,71.0962 157.313,70.9295 152.5,71C 151.283,74.4657 151.283,77.9657 152.5,81.5C 151.18,80.0582 149.514,79.3915 147.5,79.5C 147.5,77.1667 147.5,74.8333 147.5,72.5C 134.656,72.1713 121.989,72.5046 109.5,73.5C 109.831,101.338 109.498,129.005 108.5,156.5C 107.833,156.5 107.167,156.5 106.5,156.5C 106.5,154.167 106.5,151.833 106.5,149.5C 106.5,115.833 106.5,82.1667 106.5,48.5C 133.167,48.5 159.833,48.5 186.5,48.5C 186.5,84.5 186.5,120.5 186.5,156.5C 177.5,156.5 168.5,156.5 159.5,156.5 Z"/></g>
<g><path style="opacity:1" fill="#fdbc96" d="M 140.5,132.5 C 141.08,136.649 140.414,140.316 138.5,143.5C 138.576,139.616 137.91,135.95 136.5,132.5C 137.833,132.5 139.167,132.5 140.5,132.5 Z"/></g>
<g><path style="opacity:1" fill="#dfbbbb" d="M 142.5,129.5 C 142.5,129.833 142.5,130.167 142.5,130.5C 141.833,131.167 141.167,131.833 140.5,132.5C 139.167,132.5 137.833,132.5 136.5,132.5C 137.91,135.95 138.576,139.616 138.5,143.5C 139.13,145.75 140.13,147.75 141.5,149.5C 142.278,150.156 142.944,150.989 143.5,152C 143.43,152.765 143.097,153.265 142.5,153.5C 142.5,152.833 142.167,152.5 141.5,152.5C 141.5,151.833 141.167,151.5 140.5,151.5C 140.068,150.29 139.401,149.29 138.5,148.5C 137.215,143.186 135.548,138.019 133.5,133C 133.755,131.674 134.422,130.674 135.5,130C 137.81,129.503 140.143,129.337 142.5,129.5 Z"/></g>
<g><path style="opacity:1" fill="#4f62b6" d="M 152.5,133.5 C 152.5,136.833 152.5,140.167 152.5,143.5C 151.069,143.119 150.236,142.119 150,140.5C 149.501,136.179 149.334,131.846 149.5,127.5C 150.5,127.5 151.5,127.5 152.5,127.5C 152.5,129.5 152.5,131.5 152.5,133.5 Z"/></g>
<g><path style="opacity:1" fill="#fbbda3" d="M 121.5,126.5 C 121.5,130.833 121.5,135.167 121.5,139.5C 122.552,139.351 123.552,139.517 124.5,140C 124.167,140.333 123.833,140.667 123.5,141C 125.531,141.632 127.198,142.799 128.5,144.5C 128.113,145.72 127.28,146.387 126,146.5C 123.547,145.507 121.047,145.34 118.5,146C 117.663,147.011 117.33,148.178 117.5,149.5C 121.329,148.931 124.663,149.598 127.5,151.5C 123.5,151.5 119.5,151.5 115.5,151.5C 115.5,143.167 115.5,134.833 115.5,126.5C 117.5,126.5 119.5,126.5 121.5,126.5 Z"/></g>
<g><path style="opacity:1" fill="#e8b895" d="M 163.5,110.5 C 163.205,117.588 163.538,124.588 164.5,131.5C 164.5,132.167 164.5,132.833 164.5,133.5C 162.833,133.5 161.167,133.5 159.5,133.5C 157.5,133.5 155.5,133.5 153.5,133.5C 153.5,130.167 153.5,126.833 153.5,123.5C 152.911,119.029 153.577,115.029 155.5,111.5C 155.5,118.167 155.5,124.833 155.5,131.5C 156.833,131.5 158.167,131.5 159.5,131.5C 159.5,124.833 159.5,118.167 159.5,111.5C 159.281,110.325 159.614,109.325 160.5,108.5C 161.518,109.193 162.518,109.859 163.5,110.5 Z"/></g>
<g><path style="opacity:1" fill="#f79a6b" d="M 119.5,118.5 C 125.598,117.883 131.265,118.55 136.5,120.5C 136.5,120.833 136.5,121.167 136.5,121.5C 136.167,121.5 135.833,121.5 135.5,121.5C 129.943,121.153 124.61,121.82 119.5,123.5C 119.5,121.833 119.5,120.167 119.5,118.5 Z"/></g>
<g><path style="opacity:1" fill="#f2987a" d="M 111.5,77.5 C 122.552,76.8572 133.219,77.5238 143.5,79.5C 141.167,79.5 138.833,79.5 136.5,79.5C 134.5,79.5 132.5,79.5 130.5,79.5C 129.833,90.6738 129.167,102.007 128.5,113.5C 128.154,101.804 127.154,90.4702 125.5,79.5C 122.5,79.5 119.5,79.5 116.5,79.5C 115.505,92.3226 115.171,105.323 115.5,118.5C 116.833,118.5 118.167,118.5 119.5,118.5C 119.5,120.167 119.5,121.833 119.5,123.5C 124.61,121.82 129.943,121.153 135.5,121.5C 135.5,121.833 135.5,122.167 135.5,122.5C 132.794,122.575 130.127,122.908 127.5,123.5C 124.911,123.461 122.911,124.461 121.5,126.5C 119.5,126.5 117.5,126.5 115.5,126.5C 115.5,134.833 115.5,143.167 115.5,151.5C 119.5,151.5 123.5,151.5 127.5,151.5C 129.5,151.5 131.5,151.5 133.5,151.5C 133.249,153.17 132.582,154.67 131.5,156C 124.842,156.5 118.175,156.666 111.5,156.5C 110.293,130.006 110.293,103.673 111.5,77.5 Z"/></g>
<g><path style="opacity:1" fill="#f6ae8c" d="M 116.5,79.5 C 116.5,92.1667 116.5,104.833 116.5,117.5C 119.455,116.841 122.455,116.508 125.5,116.5C 125.5,104.167 125.5,91.8333 125.5,79.5C 127.154,90.4702 128.154,101.804 128.5,113.5C 129.167,102.007 129.833,90.6738 130.5,79.5C 130.5,90.1667 130.5,100.833 130.5,111.5C 131.833,111.5 133.167,111.5 134.5,111.5C 134.5,110.167 134.5,108.833 134.5,107.5C 135.959,107.433 137.292,107.766 138.5,108.5C 138.5,110.5 138.5,112.5 138.5,114.5C 135.518,114.104 132.851,114.771 130.5,116.5C 132.743,117.474 135.076,117.808 137.5,117.5C 137.737,118.791 137.404,119.791 136.5,120.5C 131.265,118.55 125.598,117.883 119.5,118.5C 118.167,118.5 116.833,118.5 115.5,118.5C 115.171,105.323 115.505,92.3226 116.5,79.5 Z"/></g>
<g><path style="opacity:1" fill="#f9f5ed" d="M 159.5,106.5 C 158.28,108.284 158.28,109.95 159.5,111.5C 159.5,118.167 159.5,124.833 159.5,131.5C 158.167,131.5 156.833,131.5 155.5,131.5C 155.5,124.833 155.5,118.167 155.5,111.5C 155.183,108.454 156.516,106.787 159.5,106.5 Z"/></g>
<g><path style="opacity:1" fill="#8fb5dc" d="M 150.5,93.5 C 151.5,93.5 152.5,93.5 153.5,93.5C 153.5,94.8333 154.167,95.5 155.5,95.5C 157.587,96.5846 158.92,98.2512 159.5,100.5C 159.5,102.5 159.5,104.5 159.5,106.5C 156.516,106.787 155.183,108.454 155.5,111.5C 153.577,115.029 152.911,119.029 153.5,123.5C 150.167,123.5 146.833,123.5 143.5,123.5C 140.794,123.425 138.127,123.092 135.5,122.5C 135.5,122.167 135.5,121.833 135.5,121.5C 135.833,121.5 136.167,121.5 136.5,121.5C 137.5,121.5 138.5,121.5 139.5,121.5C 140.194,116.195 140.528,110.862 140.5,105.5C 136.775,105.22 135.608,103.22 137,99.5C 138.167,98.3333 139.333,97.1667 140.5,96C 144.311,96.0835 147.645,95.2501 150.5,93.5 Z"/></g>
<g><path style="opacity:1" fill="#fbd1c8" d="M 155.5,75.5 C 162.648,74.5084 169.981,74.175 177.5,74.5C 177.83,93.674 177.497,112.674 176.5,131.5C 176.5,112.833 176.5,94.1667 176.5,75.5C 169.5,75.5 162.5,75.5 155.5,75.5 Z"/></g>
<g><path style="opacity:1" fill="#deb7ad" d="M 159.5,100.5 C 164.577,102.052 169.911,103.052 175.5,103.5C 170.88,104.493 166.214,104.827 161.5,104.5C 161.704,106.685 162.37,108.685 163.5,110.5C 162.518,109.859 161.518,109.193 160.5,108.5C 159.614,109.325 159.281,110.325 159.5,111.5C 158.28,109.95 158.28,108.284 159.5,106.5C 159.5,104.5 159.5,102.5 159.5,100.5 Z"/></g>
<g><path style="opacity:1" fill="#f2eedd" d="M 152.5,87.5 C 153.461,89.2646 153.795,91.2646 153.5,93.5C 152.5,93.5 151.5,93.5 150.5,93.5C 150.253,91.1417 150.919,89.1417 152.5,87.5 Z"/></g>
<g><path style="opacity:1" fill="#fabe9e" d="M 130.5,79.5 C 132.5,79.5 134.5,79.5 136.5,79.5C 136.833,82.5 135.5,83.8333 132.5,83.5C 132.335,86.5184 132.502,89.5184 133,92.5C 137.699,94.6677 137.532,95.6677 132.5,95.5C 132.927,98.3761 133.594,101.209 134.5,104C 136.155,105.301 137.489,106.801 138.5,108.5C 137.292,107.766 135.959,107.433 134.5,107.5C 134.5,108.833 134.5,110.167 134.5,111.5C 133.167,111.5 131.833,111.5 130.5,111.5C 130.5,100.833 130.5,90.1667 130.5,79.5 Z"/></g>
<g><path style="opacity:1" fill="#dfaa9a" d="M 164.5,133.5 C 164.5,132.833 164.5,132.167 164.5,131.5C 168.5,131.5 172.5,131.5 176.5,131.5C 177.497,112.674 177.83,93.674 177.5,74.5C 169.981,74.175 162.648,74.5084 155.5,75.5C 155.5,82.1667 155.5,88.8333 155.5,95.5C 154.167,95.5 153.5,94.8333 153.5,93.5C 153.795,91.2646 153.461,89.2646 152.5,87.5C 153.301,85.9582 153.634,84.2915 153.5,82.5C 153.5,79.5 153.5,76.5 153.5,73.5C 162.142,72.7013 170.809,72.368 179.5,72.5C 179.5,92.8333 179.5,113.167 179.5,133.5C 174.5,133.5 169.5,133.5 164.5,133.5 Z"/></g>
<g><path style="opacity:1" fill="#eeb6a7" d="M 136.5,79.5 C 138.833,79.5 141.167,79.5 143.5,79.5C 143.5,80.5 143.5,81.5 143.5,82.5C 147.241,81.5985 149.241,82.9319 149.5,86.5C 146.697,85.0721 143.697,84.4054 140.5,84.5C 140.5,86.8333 140.5,89.1667 140.5,91.5C 143.482,91.1044 146.149,91.7711 148.5,93.5C 149.466,91.604 149.799,89.604 149.5,87.5C 150.5,86.1667 151.5,86.1667 152.5,87.5C 150.919,89.1417 150.253,91.1417 150.5,93.5C 147.645,95.2501 144.311,96.0835 140.5,96C 139.333,97.1667 138.167,98.3333 137,99.5C 135.608,103.22 136.775,105.22 140.5,105.5C 140.528,110.862 140.194,116.195 139.5,121.5C 138.5,121.5 137.5,121.5 136.5,121.5C 136.5,121.167 136.5,120.833 136.5,120.5C 137.404,119.791 137.737,118.791 137.5,117.5C 135.076,117.808 132.743,117.474 130.5,116.5C 132.851,114.771 135.518,114.104 138.5,114.5C 138.5,112.5 138.5,110.5 138.5,108.5C 137.489,106.801 136.155,105.301 134.5,104C 133.594,101.209 132.927,98.3761 132.5,95.5C 137.532,95.6677 137.699,94.6677 133,92.5C 132.502,89.5184 132.335,86.5184 132.5,83.5C 135.5,83.8333 136.833,82.5 136.5,79.5 Z"/></g>
<g><path style="opacity:1" fill="#f3a479" d="M 149.5,86.5 C 149.5,86.8333 149.5,87.1667 149.5,87.5C 149.799,89.604 149.466,91.604 148.5,93.5C 146.149,91.7711 143.482,91.1044 140.5,91.5C 140.5,89.1667 140.5,86.8333 140.5,84.5C 143.697,84.4054 146.697,85.0721 149.5,86.5 Z"/></g>
<g><path style="opacity:1" fill="#fabda7" d="M 116.5,79.5 C 119.5,79.5 122.5,79.5 125.5,79.5C 125.5,91.8333 125.5,104.167 125.5,116.5C 122.455,116.508 119.455,116.841 116.5,117.5C 116.5,104.833 116.5,92.1667 116.5,79.5 Z"/></g>
<g><path style="opacity:1" fill="#49487b" d="M 143.5,79.5 C 144.167,79.5 144.833,79.5 145.5,79.5C 145.833,79.5 146.167,79.5 146.5,79.5C 146.833,79.5 147.167,79.5 147.5,79.5C 149.514,79.3915 151.18,80.0582 152.5,81.5C 152.5,82.1667 152.833,82.5 153.5,82.5C 153.634,84.2915 153.301,85.9582 152.5,87.5C 151.5,86.1667 150.5,86.1667 149.5,87.5C 149.5,87.1667 149.5,86.8333 149.5,86.5C 149.241,82.9319 147.241,81.5985 143.5,82.5C 143.5,81.5 143.5,80.5 143.5,79.5 Z"/></g>
<g><path style="opacity:1" fill="#fafaf7" d="M 155.5,75.5 C 162.5,75.5 169.5,75.5 176.5,75.5C 176.5,94.1667 176.5,112.833 176.5,131.5C 172.5,131.5 168.5,131.5 164.5,131.5C 163.538,124.588 163.205,117.588 163.5,110.5C 162.37,108.685 161.704,106.685 161.5,104.5C 166.214,104.827 170.88,104.493 175.5,103.5C 169.911,103.052 164.577,102.052 159.5,100.5C 158.92,98.2512 157.587,96.5846 155.5,95.5C 155.5,88.8333 155.5,82.1667 155.5,75.5 Z"/></g>
<g><path style="opacity:1" fill="#bed4e4" d="M 168.5,111.5 C 169.5,111.5 170.5,111.5 171.5,111.5C 171.5,112.833 171.5,114.167 171.5,115.5C 176.833,116.167 176.833,116.833 171.5,117.5C 171.351,118.552 171.517,119.552 172,120.5C 173.183,119.269 174.349,119.269 175.5,120.5C 174.619,121.971 173.286,122.804 171.5,123C 172.793,123.49 174.127,123.657 175.5,123.5C 175.654,129.351 172.988,131.351 167.5,129.5C 166.652,127.591 166.318,125.591 166.5,123.5C 167.552,123.649 168.552,123.483 169.5,123C 166.311,122.019 165.978,120.686 168.5,119C 167.426,118.261 166.759,117.261 166.5,116C 167.707,114.7 168.374,113.2 168.5,111.5 Z"/></g>
<g><path style="opacity:1" fill="#fa956c" d="M 145.5,79.5 C 144.833,79.5 144.167,79.5 143.5,79.5C 133.219,77.5238 122.552,76.8572 111.5,77.5C 111.5,76.5 111.5,75.5 111.5,74.5C 122.505,74.3335 133.505,74.5002 144.5,75C 145.38,76.3561 145.714,77.8561 145.5,79.5 Z"/></g>
<g><path style="opacity:1" fill="#ecc1b3" d="M 109.5,73.5 C 121.989,72.5046 134.656,72.1713 147.5,72.5C 147.5,74.8333 147.5,77.1667 147.5,79.5C 147.167,79.5 146.833,79.5 146.5,79.5C 146.5,77.5 146.5,75.5 146.5,73.5C 134.167,73.5 121.833,73.5 109.5,73.5 Z"/></g>
<g><path style="opacity:1" fill="#bacfd6" d="M 127.5,55.5 C 127.833,55.5 128.167,55.5 128.5,55.5C 128.5,58.1667 128.5,60.8333 128.5,63.5C 129.833,63.5 131.167,63.5 132.5,63.5C 131.671,57.832 134.005,55.332 139.5,56C 142.077,59.262 142.077,62.5954 139.5,66C 135.216,65.5738 130.882,65.7404 126.5,66.5C 126.185,62.6286 126.518,58.9619 127.5,55.5 Z"/></g>
<g><path style="opacity:1" fill="#a2baca" d="M 159.5,55.5 C 160.496,55.4142 161.329,55.7476 162,56.5C 163.668,62.9556 164.835,62.6223 165.5,55.5C 166.487,58.7683 166.82,62.1016 166.5,65.5C 165.325,65.719 164.325,65.3857 163.5,64.5C 161.244,57.7658 160.077,58.0992 160,65.5C 159.502,62.1832 159.335,58.8499 159.5,55.5 Z"/></g>
<g><path style="opacity:1" fill="#adbec8" d="M 144.5,55.5 C 150.373,55.5981 150.706,56.5981 145.5,58.5C 143.562,62.157 144.562,64.157 148.5,64.5C 148.67,63.1779 148.337,62.0113 147.5,61C 148.448,60.5172 149.448,60.3505 150.5,60.5C 150.5,62.5 150.5,64.5 150.5,66.5C 142.549,66.2713 140.549,62.6046 144.5,55.5 Z"/></g>
<g><path style="opacity:1" fill="#f4f5f3" d="M 159.5,133.5 C 161.167,133.5 162.833,133.5 164.5,133.5C 169.5,133.5 174.5,133.5 179.5,133.5C 179.5,113.167 179.5,92.8333 179.5,72.5C 170.809,72.368 162.142,72.7013 153.5,73.5C 153.5,76.5 153.5,79.5 153.5,82.5C 152.833,82.5 152.5,82.1667 152.5,81.5C 151.283,77.9657 151.283,74.4657 152.5,71C 157.313,70.9295 162.147,71.0962 167,71.5C 178.139,70.7348 177.972,70.0681 166.5,69.5C 166.351,68.448 166.517,67.448 167,66.5C 169.466,67.7883 171.966,67.7883 174.5,66.5C 175.192,67.0253 175.692,67.6919 176,68.5C 176.667,66.8333 176.667,65.1667 176,63.5C 173.959,64.4231 171.792,64.7564 169.5,64.5C 170.167,61.8333 170.833,59.1667 171.5,56.5C 167.918,54.5318 163.918,53.5318 159.5,53.5C 149.145,54.0273 138.812,54.694 128.5,55.5C 128.167,55.5 127.833,55.5 127.5,55.5C 127.5,54.1667 127.5,52.8333 127.5,51.5C 143.36,52.0289 159.36,52.0289 175.5,51.5C 175.337,53.8568 175.503,56.1902 176,58.5C 176.662,55.5834 178.495,54.2501 181.5,54.5C 181.827,56.4878 182.16,58.4878 182.5,60.5C 181.23,72.0958 180.564,83.7624 180.5,95.5C 181.001,111.547 181.001,127.547 180.5,143.5C 179.5,143.5 178.5,143.5 177.5,143.5C 177.167,135.5 176.833,135.5 176.5,143.5C 170.824,143.666 165.157,143.499 159.5,143C 164.823,142.501 170.156,142.334 175.5,142.5C 175.5,141.5 175.5,140.5 175.5,139.5C 154.167,138.833 154.167,138.167 175.5,137.5C 175.5,136.5 175.5,135.5 175.5,134.5C 169.974,134.821 164.64,134.488 159.5,133.5 Z"/></g>
<g><path style="opacity:1" fill="#395cb2" d="M 127.5,138.5 C 127.5,138.167 127.5,137.833 127.5,137.5C 127.238,136.022 127.571,134.689 128.5,133.5C 134.191,135.349 135.858,139.016 133.5,144.5C 132.463,141.463 130.463,139.463 127.5,138.5 Z"/></g>
<g><path style="opacity:1" fill="#4c5d9e" d="M 135.5,122.5 C 138.127,123.092 140.794,123.425 143.5,123.5C 144.919,124.451 146.585,124.784 148.5,124.5C 148.097,130.312 147.264,135.979 146,141.5C 145.303,137.141 144.137,133.141 142.5,129.5C 140.143,129.337 137.81,129.503 135.5,130C 134.422,130.674 133.755,131.674 133.5,133C 135.548,138.019 137.215,143.186 138.5,148.5C 136.362,149.808 134.362,149.475 132.5,147.5C 131.391,144.153 129.724,141.153 127.5,138.5C 130.463,139.463 132.463,141.463 133.5,144.5C 135.858,139.016 134.191,135.349 128.5,133.5C 127.571,134.689 127.238,136.022 127.5,137.5C 125.605,134.501 124.272,131.167 123.5,127.5C 124.437,125.712 125.77,124.379 127.5,123.5C 130.127,122.908 132.794,122.575 135.5,122.5 Z"/></g>
<g><path style="opacity:1" fill="#f2bdae" d="M 127.5,123.5 C 125.77,124.379 124.437,125.712 123.5,127.5C 124.272,131.167 125.605,134.501 127.5,137.5C 127.5,137.833 127.5,138.167 127.5,138.5C 129.724,141.153 131.391,144.153 132.5,147.5C 132.833,148.833 133.167,150.167 133.5,151.5C 131.5,151.5 129.5,151.5 127.5,151.5C 124.663,149.598 121.329,148.931 117.5,149.5C 117.33,148.178 117.663,147.011 118.5,146C 121.047,145.34 123.547,145.507 126,146.5C 127.28,146.387 128.113,145.72 128.5,144.5C 127.198,142.799 125.531,141.632 123.5,141C 123.833,140.667 124.167,140.333 124.5,140C 123.552,139.517 122.552,139.351 121.5,139.5C 121.5,135.167 121.5,130.833 121.5,126.5C 122.911,124.461 124.911,123.461 127.5,123.5 Z"/></g>
<g><path style="opacity:1" fill="#e09f8d" d="M 142.5,130.5 C 143.195,137.089 144.195,143.756 145.5,150.5C 144.065,149.21 143.065,147.544 142.5,145.5C 141.571,146.689 141.238,148.022 141.5,149.5C 140.13,147.75 139.13,145.75 138.5,143.5C 140.414,140.316 141.08,136.649 140.5,132.5C 141.167,131.833 141.833,131.167 142.5,130.5 Z"/></g>
<g><path style="opacity:1" fill="#e6f1fb" d="M 206.5,135.5 C 207.167,136.5 207.833,137.5 208.5,138.5C 210.099,138.232 211.432,138.566 212.5,139.5C 214.412,140.21 216.079,141.377 217.5,143C 216.261,145.213 216.594,147.213 218.5,149C 216.328,151.505 214.161,154.005 212,156.5C 211.51,155.207 211.343,153.873 211.5,152.5C 214.606,152.412 214.94,151.078 212.5,148.5C 207.833,148.5 203.167,148.5 198.5,148.5C 198.5,146.833 198.5,145.167 198.5,143.5C 200.833,140.5 203.5,137.833 206.5,135.5 Z"/></g>
<g><path style="opacity:1" fill="#d3e0ed" d="M 87.5,158.5 C 88.1894,159.774 89.0228,159.774 90,158.5C 91.4578,153.406 92.2912,153.739 92.5,159.5C 93.5,159.5 94.5,159.5 95.5,159.5C 95.5,160.167 95.5,160.833 95.5,161.5C 95.5,161.833 95.5,162.167 95.5,162.5C 92.3737,165.12 88.8737,167.12 85,168.5C 84.3224,170.598 84.4891,172.598 85.5,174.5C 70.7302,175.493 56.0636,174.493 41.5,171.5C 46.1277,170.338 50.7944,169.338 55.5,168.5C 54.1951,165.947 53.1951,163.28 52.5,160.5C 48.3786,159.377 46.7119,156.71 47.5,152.5C 47.6567,151.127 47.49,149.793 47,148.5C 44.7492,145.983 43.9159,142.983 44.5,139.5C 46.5273,139.338 48.5273,139.505 50.5,140C 53.343,142.511 55.843,145.344 58,148.5C 58.037,146.729 57.8703,144.896 57.5,143C 59.1076,136.246 60.1076,129.413 60.5,122.5C 62.924,122.192 65.2573,122.526 67.5,123.5C 70.764,127.564 72.264,132.23 72,137.5C 74.1485,138.977 75.4818,140.977 76,143.5C 76.3445,150.352 78.3445,156.685 82,162.5C 82.49,161.207 82.6567,159.873 82.5,158.5C 84.1667,158.5 85.8333,158.5 87.5,158.5 Z"/></g>
<g><path style="opacity:1" fill="#b3999b" d="M 132.5,147.5 C 134.362,149.475 136.362,149.808 138.5,148.5C 139.401,149.29 140.068,150.29 140.5,151.5C 136.905,152.099 134.572,154.099 133.5,157.5C 134.291,155.309 134.291,153.309 133.5,151.5C 133.167,150.167 132.833,148.833 132.5,147.5 Z"/></g>
<g><path style="opacity:1" fill="#5163b9" d="M 148.5,155.5 C 147,151.67 146.333,147.67 146.5,143.5C 147.5,143.5 148.5,143.5 149.5,143.5C 150.453,148.931 151.786,154.264 153.5,159.5C 152.5,159.5 151.5,159.5 150.5,159.5C 150.771,157.62 150.104,156.287 148.5,155.5 Z"/></g>
<g><path style="opacity:1" fill="#e4f2f7" d="M 103.5,156.5 C 100.833,156.5 98.1667,156.5 95.5,156.5C 97.1992,153.804 99.5326,151.804 102.5,150.5C 103.466,152.396 103.799,154.396 103.5,156.5 Z"/></g>
<g><path style="opacity:1" fill="#f19a6d" d="M 145.5,150.5 C 145.5,150.833 145.5,151.167 145.5,151.5C 145.5,153.5 145.5,155.5 145.5,157.5C 144.5,157.5 143.5,157.5 142.5,157.5C 142.5,156.167 142.5,154.833 142.5,153.5C 143.097,153.265 143.43,152.765 143.5,152C 142.944,150.989 142.278,150.156 141.5,149.5C 141.238,148.022 141.571,146.689 142.5,145.5C 143.065,147.544 144.065,149.21 145.5,150.5 Z"/></g>
<g><path style="opacity:1" fill="#433d79" d="M 140.5,151.5 C 141.167,151.5 141.5,151.833 141.5,152.5C 141.67,153.822 141.337,154.989 140.5,156C 138.423,157.705 136.09,158.872 133.5,159.5C 133.5,158.833 133.5,158.167 133.5,157.5C 134.572,154.099 136.905,152.099 140.5,151.5 Z"/></g>
<g><path style="opacity:1" fill="#a0c1e2" d="M 198.5,143.5 C 198.5,145.167 198.5,146.833 198.5,148.5C 203.167,148.5 207.833,148.5 212.5,148.5C 212.5,149.5 212.5,150.5 212.5,151.5C 210.833,151.5 209.167,151.5 207.5,151.5C 204.212,151.927 201.212,151.26 198.5,149.5C 196.077,151.086 193.41,152.086 190.5,152.5C 189.391,157.493 188.391,162.493 187.5,167.5C 180.5,167.5 173.5,167.5 166.5,167.5C 164.637,165.295 162.303,163.961 159.5,163.5C 159.5,161.5 159.5,159.5 159.5,157.5C 168.833,157.5 178.167,157.5 187.5,157.5C 187.173,152.786 187.507,148.12 188.5,143.5C 189.452,145.045 189.785,146.712 189.5,148.5C 191.5,148.5 193.5,148.5 195.5,148.5C 195.241,146.011 196.241,144.344 198.5,143.5 Z"/></g>
<g><path style="opacity:1" fill="#feb9a9" d="M 95.5,161.5 C 111.5,161.5 127.5,161.5 143.5,161.5C 143.5,162.833 143.5,164.167 143.5,165.5C 127.497,165.333 111.497,165.5 95.5,166C 93.1367,166.589 92.1367,168.089 92.5,170.5C 109.802,169.375 127.135,169.208 144.5,170C 145.056,170.383 145.389,170.883 145.5,171.5C 127.671,172.662 109.671,172.829 91.5,172C 90.6919,171.692 90.0253,171.192 89.5,170.5C 91.1397,167.532 93.1397,164.865 95.5,162.5C 95.5,162.167 95.5,161.833 95.5,161.5 Z"/></g>
<g><path style="opacity:1" fill="#aecff1" d="M 207.5,151.5 C 207.813,154.247 207.48,156.914 206.5,159.5C 203.093,150.325 200.093,150.659 197.5,160.5C 200.768,161.487 204.102,161.82 207.5,161.5C 207.5,162.833 207.5,164.167 207.5,165.5C 202.167,165.5 196.833,165.5 191.5,165.5C 191.5,166.833 191.5,168.167 191.5,169.5C 197.026,169.179 202.36,169.512 207.5,170.5C 200.167,170.5 192.833,170.5 185.5,170.5C 186.398,169.842 187.398,169.176 188.5,168.5C 188.376,167.893 188.043,167.56 187.5,167.5C 188.391,162.493 189.391,157.493 190.5,152.5C 193.41,152.086 196.077,151.086 198.5,149.5C 201.212,151.26 204.212,151.927 207.5,151.5 Z"/></g>
<g><path style="opacity:1" fill="#e4bcae" d="M 154.5,156.5 C 156.167,156.5 157.833,156.5 159.5,156.5C 159.5,156.833 159.5,157.167 159.5,157.5C 159.5,159.5 159.5,161.5 159.5,163.5C 162.303,163.961 164.637,165.295 166.5,167.5C 168.226,169.82 168.893,172.487 168.5,175.5C 166.5,175.5 164.5,175.5 162.5,175.5C 161.915,172.378 160.248,171.711 157.5,173.5C 156.287,173.253 155.62,172.586 155.5,171.5C 158.889,170.29 159.223,168.623 156.5,166.5C 153.913,167.054 151.58,168.054 149.5,169.5C 150.627,167.781 150.627,165.114 149.5,161.5C 151.229,163.727 153.562,164.727 156.5,164.5C 155.833,161.833 155.167,159.167 154.5,156.5 Z"/></g>
<g><path style="opacity:1" fill="#f3bca3" d="M 145.5,151.5 C 146.5,152.833 147.5,154.167 148.5,155.5C 149.15,157.435 149.483,159.435 149.5,161.5C 150.627,165.114 150.627,167.781 149.5,169.5C 149.5,170.167 149.167,170.5 148.5,170.5C 147.391,170.557 146.391,170.89 145.5,171.5C 145.389,170.883 145.056,170.383 144.5,170C 127.135,169.208 109.802,169.375 92.5,170.5C 92.1367,168.089 93.1367,166.589 95.5,166C 111.497,165.5 127.497,165.333 143.5,165.5C 143.5,164.167 143.5,162.833 143.5,161.5C 127.5,161.5 111.5,161.5 95.5,161.5C 95.5,160.833 95.5,160.167 95.5,159.5C 95.5,158.5 95.5,157.5 95.5,156.5C 98.1667,156.5 100.833,156.5 103.5,156.5C 104.5,156.5 105.5,156.5 106.5,156.5C 107.167,156.5 107.833,156.5 108.5,156.5C 106.863,158.124 107.197,159.124 109.5,159.5C 113.548,158.303 117.715,157.636 122,157.5C 126.092,157.576 129.925,158.243 133.5,159.5C 136.09,158.872 138.423,157.705 140.5,156C 141.337,154.989 141.67,153.822 141.5,152.5C 142.167,152.5 142.5,152.833 142.5,153.5C 142.5,154.833 142.5,156.167 142.5,157.5C 143.5,157.5 144.5,157.5 145.5,157.5C 145.5,155.5 145.5,153.5 145.5,151.5 Z"/></g>
<g><path style="opacity:1" fill="#d2e1ef" d="M 207.5,107.5 C 208.946,106.387 210.613,106.22 212.5,107C 214.663,113.186 218.83,115.353 225,113.5C 228.213,115.974 231.713,117.974 235.5,119.5C 236.329,124.802 236.829,130.136 237,135.5C 238.61,137.939 239.444,140.606 239.5,143.5C 240.5,143.5 241.5,143.5 242.5,143.5C 242.5,142.5 242.5,141.5 242.5,140.5C 244.3,135.653 247.633,134.32 252.5,136.5C 253.374,138.747 253.708,141.08 253.5,143.5C 252.5,143.5 251.5,143.5 250.5,143.5C 250.235,147.853 249.735,152.187 249,156.5C 247.795,157.071 246.628,157.738 245.5,158.5C 244.424,162.178 242.757,165.511 240.5,168.5C 260.274,170.993 259.941,172.826 239.5,174C 226.186,175.055 212.853,175.555 199.5,175.5C 189.167,175.5 178.833,175.5 168.5,175.5C 168.893,172.487 168.226,169.82 166.5,167.5C 173.5,167.5 180.5,167.5 187.5,167.5C 188.043,167.56 188.376,167.893 188.5,168.5C 187.398,169.176 186.398,169.842 185.5,170.5C 185.918,171.222 186.584,171.722 187.5,172C 190.833,172.167 194.167,172.333 197.5,172.5C 201.239,172.486 204.572,171.82 207.5,170.5C 202.36,169.512 197.026,169.179 191.5,169.5C 191.5,168.167 191.5,166.833 191.5,165.5C 196.833,165.5 202.167,165.5 207.5,165.5C 207.5,164.167 207.5,162.833 207.5,161.5C 204.102,161.82 200.768,161.487 197.5,160.5C 200.093,150.659 203.093,150.325 206.5,159.5C 207.48,156.914 207.813,154.247 207.5,151.5C 209.167,151.5 210.833,151.5 212.5,151.5C 212.5,150.5 212.5,149.5 212.5,148.5C 214.94,151.078 214.606,152.412 211.5,152.5C 211.343,153.873 211.51,155.207 212,156.5C 214.161,154.005 216.328,151.505 218.5,149C 216.594,147.213 216.261,145.213 217.5,143C 216.079,141.377 214.412,140.21 212.5,139.5C 213.931,139.119 214.764,138.119 215,136.5C 215.739,137.574 216.739,138.241 218,138.5C 219.098,137.616 219.598,136.616 219.5,135.5C 221.042,136.747 222.542,136.747 224,135.5C 224.617,134.551 224.451,133.718 223.5,133C 221.744,132.798 220.078,132.298 218.5,131.5C 220.805,131.308 223.138,130.974 225.5,130.5C 224.092,129.757 222.759,128.923 221.5,128C 224.146,127.503 226.813,127.336 229.5,127.5C 229.5,126.167 229.5,124.833 229.5,123.5C 228.127,123.657 226.793,123.49 225.5,123C 227.919,121.491 228.919,119.325 228.5,116.5C 225.167,116.027 223,117.36 222,120.5C 221.601,120.272 221.435,119.938 221.5,119.5C 221.5,118.167 221.5,116.833 221.5,115.5C 218.068,114.792 214.402,114.792 210.5,115.5C 210.167,115.167 209.833,114.833 209.5,114.5C 210.946,112.382 211.613,110.049 211.5,107.5C 210.167,107.5 208.833,107.5 207.5,107.5 Z"/></g>
<g><path style="opacity:1" fill="#43457f" d="M 155.5,171.5 C 153.516,172.156 151.516,172.822 149.5,173.5C 147.197,173.124 146.863,172.124 148.5,170.5C 149.167,170.5 149.5,170.167 149.5,169.5C 151.58,168.054 153.913,167.054 156.5,166.5C 159.223,168.623 158.889,170.29 155.5,171.5 Z"/></g>
<g><path style="opacity:1" fill="#88a9d4" d="M 185.5,170.5 C 192.833,170.5 200.167,170.5 207.5,170.5C 204.572,171.82 201.239,172.486 197.5,172.5C 194.167,172.333 190.833,172.167 187.5,172C 186.584,171.722 185.918,171.222 185.5,170.5 Z"/></g>
<g><path style="opacity:1" fill="#e2c5c0" d="M 95.5,162.5 C 93.1397,164.865 91.1397,167.532 89.5,170.5C 90.0253,171.192 90.6919,171.692 91.5,172C 109.671,172.829 127.671,172.662 145.5,171.5C 146.391,170.89 147.391,170.557 148.5,170.5C 146.863,172.124 147.197,173.124 149.5,173.5C 151.516,172.822 153.516,172.156 155.5,171.5C 155.62,172.586 156.287,173.253 157.5,173.5C 160.248,171.711 161.915,172.378 162.5,175.5C 140.129,174.311 117.796,174.311 95.5,175.5C 91.9581,175.813 88.6248,175.479 85.5,174.5C 84.4891,172.598 84.3224,170.598 85,168.5C 88.8737,167.12 92.3737,165.12 95.5,162.5 Z"/></g>
<g><path style="opacity:1" fill="#e7e8e4" d="M 162.5,175.5 C 164.5,175.5 166.5,175.5 168.5,175.5C 178.833,175.5 189.167,175.5 199.5,175.5C 164.833,176.833 130.167,176.833 95.5,175.5C 117.796,174.311 140.129,174.311 162.5,175.5 Z"/></g>
</svg>
