<?xml version="1.0" encoding="UTF-8"?>
<svg version="1.1" xmlns="http://www.w3.org/2000/svg" width="100" height="100">
<path d="M0 0 C0.71446289 -0.0087616 1.42892578 -0.01752319 2.16503906 -0.02655029 C4.51690151 -0.04848224 6.86686987 -0.03401601 9.21875 -0.01708984 C10.85872761 -0.02045982 12.49870279 -0.02531396 14.13867188 -0.03158569 C17.57185703 -0.03894853 21.00439072 -0.02827126 24.4375 -0.00488281 C28.83284357 0.02360553 33.22666065 0.00719826 37.62194824 -0.02274513 C41.00727794 -0.04083458 44.39224719 -0.03505273 47.77758789 -0.02210617 C49.39786969 -0.01877666 51.01818448 -0.02284327 52.63842773 -0.03450394 C54.90566356 -0.04724101 57.17044642 -0.02780132 59.4375 0 C60.72591797 0.00397797 62.01433594 0.00795593 63.34179688 0.01205444 C67.69943743 0.83135671 69.15094222 2.05802415 71.71875 5.64697266 C72.35366821 9.02392578 72.35366821 9.02392578 72.36572266 12.92822266 C72.37448425 13.64268555 72.38324585 14.35714844 72.39227295 15.09326172 C72.4142049 17.44512416 72.39973866 19.79509252 72.3828125 22.14697266 C72.38618248 23.78695027 72.39103661 25.42692545 72.39730835 27.06689453 C72.40467119 30.50007969 72.39399392 33.93261337 72.37060547 37.36572266 C72.34211713 41.76106623 72.35852439 46.15488331 72.38846779 50.5501709 C72.40655723 53.9355006 72.40077539 57.32046984 72.38782883 60.70581055 C72.38449932 62.32609234 72.38856592 63.94640713 72.40022659 65.56665039 C72.41296367 67.83388621 72.39352397 70.09866907 72.36572266 72.36572266 C72.35975571 74.29834961 72.35975571 74.29834961 72.35366821 76.27001953 C71.53436595 80.62766008 70.3076985 82.07916487 66.71875 84.64697266 C63.34179687 85.28189087 63.34179687 85.28189087 59.4375 85.29394531 C58.72303711 85.30270691 58.00857422 85.31146851 57.27246094 85.32049561 C54.92059849 85.34242756 52.57063013 85.32796132 50.21875 85.31103516 C48.57877239 85.31440513 46.93879721 85.31925927 45.29882812 85.32553101 C41.86564297 85.33289384 38.43310928 85.32221657 35 85.29882812 C30.60465643 85.27033979 26.21083935 85.28674705 21.81555176 85.31669044 C18.43022206 85.33477989 15.04525281 85.32899804 11.65991211 85.31605148 C10.03963031 85.31272198 8.41931552 85.31678858 6.79907227 85.32844925 C4.53183644 85.34118632 2.26705358 85.32174663 0 85.29394531 C-1.28841797 85.28996735 -2.57683594 85.28598938 -3.90429688 85.28189087 C-8.26193743 84.4625886 -9.71344222 83.23592116 -12.28125 79.64697266 C-12.91616821 76.27001953 -12.91616821 76.27001953 -12.92822266 72.36572266 C-12.93698425 71.65125977 -12.94574585 70.93679687 -12.95477295 70.20068359 C-12.9767049 67.84882115 -12.96223866 65.49885279 -12.9453125 63.14697266 C-12.94868248 61.50699504 -12.95353661 59.86701987 -12.95980835 58.22705078 C-12.96717119 54.79386562 -12.95649392 51.36133194 -12.93310547 47.92822266 C-12.90461713 43.53287909 -12.92102439 39.139062 -12.95096779 34.74377441 C-12.96905723 31.35844471 -12.96327539 27.97347547 -12.95032883 24.58813477 C-12.94699932 22.96785297 -12.95106592 21.34753818 -12.96272659 19.72729492 C-12.97546367 17.4600591 -12.95602397 15.19527624 -12.92822266 12.92822266 C-12.92424469 11.63980469 -12.92026672 10.35138672 -12.91616821 9.02392578 C-11.51600901 1.57686898 -7.00544459 0.02162918 0 0 Z M-7.28125 7.64697266 C-8.37096048 10.9161041 -8.42131248 13.34180917 -8.44238281 16.78320312 C-8.45199036 18.0481662 -8.4615979 19.31312927 -8.47149658 20.61642456 C-8.4763445 21.99900126 -8.48062335 23.38158005 -8.484375 24.76416016 C-8.49012891 26.18279014 -8.49588661 27.6014201 -8.50164795 29.02005005 C-8.51214889 31.99416465 -8.51799753 34.96825229 -8.52148438 37.94238281 C-8.52696822 41.74776555 -8.55099732 45.55279033 -8.57945633 49.35806084 C-8.59810715 52.28863558 -8.60328959 55.21912449 -8.60482025 58.14975357 C-8.60784165 59.55234866 -8.61585292 60.95494242 -8.62900543 62.3574791 C-8.64611554 64.32223141 -8.64233369 66.28713179 -8.63769531 68.25195312 C-8.64134094 69.36875458 -8.64498657 70.48555603 -8.64874268 71.63619995 C-8.23150484 75.05452191 -7.3738629 76.92906097 -5.28125 79.64697266 C-2.01211856 80.73668314 0.41358651 80.78703514 3.85498047 80.80810547 C5.11994354 80.81771301 6.38490662 80.82732056 7.6882019 80.83721924 C9.0707786 80.84206716 10.45335739 80.846346 11.8359375 80.85009766 C13.25456748 80.85585156 14.67319744 80.86160927 16.09182739 80.86737061 C19.06594199 80.87787155 22.04002963 80.88372018 25.01416016 80.88720703 C28.81954289 80.89269088 32.62456767 80.91671998 36.42983818 80.94517899 C39.36041292 80.9638298 42.29090184 80.96901225 45.22153091 80.97054291 C46.624126 80.97356431 48.02671976 80.98157558 49.42925644 80.99472809 C51.39400875 81.0118382 53.35890913 81.00805635 55.32373047 81.00341797 C56.99893265 81.00888641 56.99893265 81.00888641 58.70797729 81.01446533 C62.12629925 80.5972275 64.00083831 79.73958556 66.71875 77.64697266 C67.80846048 74.37784121 67.85881248 71.95213614 67.87988281 68.51074219 C67.88949036 67.24577911 67.8990979 65.98081604 67.90899658 64.67752075 C67.9138445 63.29494406 67.91812335 61.91236526 67.921875 60.52978516 C67.92762891 59.11115518 67.93338661 57.69252521 67.93914795 56.27389526 C67.94964889 53.29978066 67.95549753 50.32569303 67.95898438 47.3515625 C67.96446822 43.54617976 67.98849732 39.74115499 68.01695633 35.93588448 C68.03560715 33.00530973 68.04078959 30.07482082 68.04232025 27.14419174 C68.04534165 25.74159665 68.05335292 24.33900289 68.06650543 22.93646622 C68.08361554 20.97171391 68.07983369 19.00681352 68.07519531 17.04199219 C68.07884094 15.92519073 68.08248657 14.80838928 68.08624268 13.65774536 C67.66900484 10.2394234 66.8113629 8.36488434 64.71875 5.64697266 C61.44961856 4.55726218 59.02391349 4.50691017 55.58251953 4.48583984 C54.31755646 4.4762323 53.05259338 4.46662476 51.7492981 4.45672607 C50.3667214 4.45187815 48.98414261 4.44759931 47.6015625 4.44384766 C46.18293252 4.43809375 44.76430256 4.43233605 43.34567261 4.42657471 C40.37155801 4.41607377 37.39747037 4.41022513 34.42333984 4.40673828 C30.61795711 4.40125444 26.81293233 4.37722534 23.00766182 4.34876633 C20.07708708 4.33011551 17.14659816 4.32493307 14.21596909 4.3234024 C12.813374 4.320381 11.41078024 4.31236974 10.00824356 4.29921722 C8.04349125 4.28210711 6.07859087 4.28588896 4.11376953 4.29052734 C2.99696808 4.28688171 1.88016663 4.28323608 0.72952271 4.27947998 C-2.68879925 4.69671781 -4.56333831 5.55435975 -7.28125 7.64697266 Z " fill="#000000" transform="translate(20.28125,7.35302734375)"/>
<path d="M0 0 C1.32 0 2.64 0 4 0 C4 7.26 4 14.52 4 22 C11.26 22 18.52 22 26 22 C26 23.32 26 24.64 26 26 C18.74 26 11.48 26 4 26 C4 33.26 4 40.52 4 48 C2.68 48 1.36 48 0 48 C0 40.74 0 33.48 0 26 C-7.26 26 -14.52 26 -22 26 C-22 24.68 -22 23.36 -22 22 C-14.74 22 -7.48 22 0 22 C0 14.74 0 7.48 0 0 Z " fill="#000000" transform="translate(48,26)"/>
</svg>
