<?xml version="1.0" encoding="UTF-8"?>
<!DOCTYPE svg PUBLIC "-//W3C//DTD SVG 1.1//EN" "http://www.w3.org/Graphics/SVG/1.1/DTD/svg11.dtd">
<svg xmlns="http://www.w3.org/2000/svg" version="1.1" width="285px" height="200px" style="shape-rendering:geometricPrecision; text-rendering:geometricPrecision; image-rendering:optimizeQuality; fill-rule:evenodd; clip-rule:evenodd" xmlns:xlink="http://www.w3.org/1999/xlink">
<g><path style="opacity:1" fill="#fdfdfd" d="M -0.5,-0.5 C 94.5,-0.5 189.5,-0.5 284.5,-0.5C 284.5,66.1667 284.5,132.833 284.5,199.5C 189.5,199.5 94.5,199.5 -0.5,199.5C -0.5,132.833 -0.5,66.1667 -0.5,-0.5 Z"/></g>
<g><path style="opacity:1" fill="#a490d6" d="M 111.5,11.5 C 113.455,11.7986 114.789,12.7986 115.5,14.5C 115.5,16.5 115.5,18.5 115.5,20.5C 114.167,20.5 112.833,20.5 111.5,20.5C 112.174,18.9755 113.174,17.6422 114.5,16.5C 113.007,15.8589 112.007,14.8589 111.5,13.5C 111.5,12.8333 111.5,12.1667 111.5,11.5 Z"/></g>
<g><path style="opacity:1" fill="#ab87f2" d="M 111.5,13.5 C 112.007,14.8589 113.007,15.8589 114.5,16.5C 113.174,17.6422 112.174,18.9755 111.5,20.5C 106.442,23.6956 101.109,26.3622 95.5,28.5C 95.5,29.5 95.5,30.5 95.5,31.5C 91.9793,31.83 88.9793,33.33 86.5,36C 82.4847,37.0192 78.818,38.5192 75.5,40.5C 75.719,39.325 75.3857,38.325 74.5,37.5C 73.2054,38.0983 71.8721,38.5983 70.5,39C 71.6223,40.6134 71.1223,41.7801 69,42.5C 68.5172,43.448 68.3505,44.448 68.5,45.5C 67.8333,46.1667 67.1667,46.8333 66.5,47.5C 65.5076,55.3159 65.1743,63.3159 65.5,71.5C 65.1667,71.5 64.8333,71.5 64.5,71.5C 64.3336,62.4938 64.5002,53.4938 65,44.5C 66.0095,40.1571 68.5095,36.9904 72.5,35C 85.6354,28.0201 98.6354,20.8534 111.5,13.5 Z"/></g>
<g><path style="opacity:1" fill="#734acd" d="M 111.5,11.5 C 111.5,12.1667 111.5,12.8333 111.5,13.5C 98.6354,20.8534 85.6354,28.0201 72.5,35C 68.5095,36.9904 66.0095,40.1571 65,44.5C 64.5002,53.4938 64.3336,62.4938 64.5,71.5C 64.5,75.5 64.5,79.5 64.5,83.5C 62.8359,72.8864 61.5026,62.2197 60.5,51.5C 60.335,48.1501 60.5017,44.8168 61,41.5C 62.883,40.3474 63.7163,38.6807 63.5,36.5C 63.3691,35.6236 63.7025,34.9569 64.5,34.5C 78.0301,26.9053 91.3634,19.072 104.5,11C 106.885,10.4436 109.218,10.6103 111.5,11.5 Z"/></g>
<g><path style="opacity:1" fill="#eff3fa" d="M 115.5,14.5 C 116.468,16.6074 116.802,18.9407 116.5,21.5C 115.883,21.6107 115.383,21.944 115,22.5C 114.5,30.8267 114.334,39.16 114.5,47.5C 114.5,66.1667 114.5,84.8333 114.5,103.5C 113.668,85.0045 113.168,66.3378 113,47.5C 112.809,53.0829 112.309,58.5829 111.5,64C 107.569,63.8083 103.569,63.475 99.5,63C 101.291,61.2103 101.625,59.377 100.5,57.5C 100.979,53.0887 100.312,48.922 98.5,45C 96.4194,44.1313 94.2527,43.6313 92,43.5C 89.9919,43.3068 88.4919,43.9735 87.5,45.5C 84.5753,47.7579 81.9086,50.4246 79.5,53.5C 77.6885,55.3854 76.5218,57.7187 76,60.5C 75.1327,64.9558 75.4661,69.2891 77,73.5C 79.0684,74.3936 81.2351,75.0603 83.5,75.5C 86.4227,74.5524 89.0893,73.2191 91.5,71.5C 92.8221,71.67 93.9887,71.3366 95,70.5C 95.3519,72.2475 95.8519,73.9142 96.5,75.5C 92.4632,78.1798 88.4632,80.8465 84.5,83.5C 81.5402,84.7591 78.5402,86.0925 75.5,87.5C 74.6667,88.5 73.8333,89.5 73,90.5C 71.7811,83.5789 71.1145,76.5789 71,69.5C 70.1376,71.087 69.4709,72.7536 69,74.5C 68.5002,84.828 68.3335,95.1613 68.5,105.5C 68.7989,107.604 68.4656,109.604 67.5,111.5C 66.5003,90.1771 66.167,68.8437 66.5,47.5C 67.1667,46.8333 67.8333,46.1667 68.5,45.5C 71.1354,44.1891 73.4687,42.5224 75.5,40.5C 78.818,38.5192 82.4847,37.0192 86.5,36C 88.9793,33.33 91.9793,31.83 95.5,31.5C 95.5,30.5 95.5,29.5 95.5,28.5C 101.109,26.3622 106.442,23.6956 111.5,20.5C 112.833,20.5 114.167,20.5 115.5,20.5C 115.5,18.5 115.5,16.5 115.5,14.5 Z"/></g>
<g><path style="opacity:1" fill="#af97d7" d="M 75.5,40.5 C 73.4687,42.5224 71.1354,44.1891 68.5,45.5C 68.3505,44.448 68.5172,43.448 69,42.5C 71.1223,41.7801 71.6223,40.6134 70.5,39C 71.8721,38.5983 73.2054,38.0983 74.5,37.5C 75.3857,38.325 75.719,39.325 75.5,40.5 Z"/></g>
<g><path style="opacity:1" fill="#d884b3" d="M 151.5,40.5 C 150.307,40.9704 149.64,41.9704 149.5,43.5C 149.786,46.267 150.453,48.9337 151.5,51.5C 154.888,53.8606 158.554,55.6939 162.5,57C 163.305,58.1127 163.972,59.2794 164.5,60.5C 159.181,57.5232 153.847,54.5232 148.5,51.5C 147.508,47.2172 147.174,42.8839 147.5,38.5C 149.483,38.1568 150.817,38.8235 151.5,40.5 Z"/></g>
<g><path style="opacity:1" fill="#797ee5" d="M 87.5,45.5 C 90.925,45.3668 91.2583,46.0335 88.5,47.5C 87.1934,49.4599 85.8601,51.4599 84.5,53.5C 83.5416,53.9528 82.7083,54.6195 82,55.5C 81.6466,58.5385 80.4799,61.2052 78.5,63.5C 78.1667,63 77.8333,62.5 77.5,62C 79.1775,59.4534 79.8441,56.6201 79.5,53.5C 81.9086,50.4246 84.5753,47.7579 87.5,45.5 Z"/></g>
<g><path style="opacity:1" fill="#fde1f6" d="M 166.5,47.5 C 168.583,48.5877 170.749,49.5877 173,50.5C 173.305,53.4972 173.138,56.4972 172.5,59.5C 172.415,61.3328 171.748,62.6661 170.5,63.5C 171.424,57.3787 170.09,52.0454 166.5,47.5 Z"/></g>
<g><path style="opacity:1" fill="#eb76b7" d="M 151.5,40.5 C 156.632,42.65 161.632,44.9834 166.5,47.5C 170.09,52.0454 171.424,57.3787 170.5,63.5C 168.03,63.3465 166.03,62.3465 164.5,60.5C 163.972,59.2794 163.305,58.1127 162.5,57C 158.554,55.6939 154.888,53.8606 151.5,51.5C 150.453,48.9337 149.786,46.267 149.5,43.5C 149.64,41.9704 150.307,40.9704 151.5,40.5 Z"/></g>
<g><path style="opacity:1" fill="#ecf1f5" d="M 88.5,47.5 C 92.9284,50.1431 93.5951,53.6431 90.5,58C 92.7634,59.2425 93.5968,61.0759 93,63.5C 89.9177,65.625 86.7511,67.625 83.5,69.5C 82.1465,66.9327 82.4798,64.5994 84.5,62.5C 83.3887,61.3887 82.722,60.0554 82.5,58.5C 83.1869,56.8228 83.8535,55.1561 84.5,53.5C 85.8601,51.4599 87.1934,49.4599 88.5,47.5 Z"/></g>
<g><path style="opacity:1" fill="#7d5ec4" d="M 63.5,36.5 C 63.7163,38.6807 62.883,40.3474 61,41.5C 60.5017,44.8168 60.335,48.1501 60.5,51.5C 60.5,60.8333 60.5,70.1667 60.5,79.5C 60.1667,79.5 59.8333,79.5 59.5,79.5C 59.3334,66.1625 59.5001,52.8292 60,39.5C 60.4224,37.5743 61.5891,36.5743 63.5,36.5 Z"/></g>
<g><path style="opacity:1" fill="#9883c4" d="M 211.5,52.5 C 210.957,52.56 210.624,52.8933 210.5,53.5C 211.243,54.1818 211.909,54.8485 212.5,55.5C 210.663,55.6395 210.33,56.3061 211.5,57.5C 216.065,59.9412 220.398,62.6079 224.5,65.5C 223.833,65.5 223.5,65.8333 223.5,66.5C 220.274,64.5812 216.94,62.7479 213.5,61C 212.365,60.2506 211.365,60.4173 210.5,61.5C 215.72,64.2706 220.72,67.2706 225.5,70.5C 224.508,70.3284 223.842,70.6618 223.5,71.5C 218.448,69.2241 213.615,66.5575 209,63.5C 208.172,59.1287 208.339,54.7953 209.5,50.5C 210.522,50.8555 211.189,51.5222 211.5,52.5 Z"/></g>
<g><path style="opacity:1" fill="#8e75cb" d="M 211.5,52.5 C 216.06,54.892 220.726,57.0587 225.5,59C 227.389,60.7641 229.389,62.2641 231.5,63.5C 230.77,65.045 229.437,65.8784 227.5,66C 228.563,67.1882 229.897,67.6882 231.5,67.5C 231.719,68.675 231.386,69.675 230.5,70.5C 229.391,69.4104 228.391,69.4104 227.5,70.5C 228.32,72.1112 229.654,72.7778 231.5,72.5C 231.737,73.791 231.404,74.791 230.5,75.5C 227.669,74.9213 225.336,73.588 223.5,71.5C 223.842,70.6618 224.508,70.3284 225.5,70.5C 226.043,70.44 226.376,70.1067 226.5,69.5C 225.66,68.265 224.66,67.265 223.5,66.5C 223.5,65.8333 223.833,65.5 224.5,65.5C 226.337,65.3605 226.67,64.6939 225.5,63.5C 220.935,61.0588 216.602,58.3921 212.5,55.5C 211.909,54.8485 211.243,54.1818 210.5,53.5C 210.624,52.8933 210.957,52.56 211.5,52.5 Z"/></g>
<g><path style="opacity:1" fill="#e7d7f6" d="M 212.5,55.5 C 216.602,58.3921 220.935,61.0588 225.5,63.5C 226.67,64.6939 226.337,65.3605 224.5,65.5C 220.398,62.6079 216.065,59.9412 211.5,57.5C 210.33,56.3061 210.663,55.6395 212.5,55.5 Z"/></g>
<g><path style="opacity:1" fill="#b7b5c4" d="M 116.5,21.5 C 116.5,40.8333 116.5,60.1667 116.5,79.5C 115.833,68.8333 115.167,58.1667 114.5,47.5C 114.334,39.16 114.5,30.8267 115,22.5C 115.383,21.944 115.883,21.6107 116.5,21.5 Z"/></g>
<g><path style="opacity:1" fill="#e5d1f9" d="M 223.5,66.5 C 224.66,67.265 225.66,68.265 226.5,69.5C 226.376,70.1067 226.043,70.44 225.5,70.5C 220.72,67.2706 215.72,64.2706 210.5,61.5C 211.365,60.4173 212.365,60.2506 213.5,61C 216.94,62.7479 220.274,64.5812 223.5,66.5 Z"/></g>
<g><path style="opacity:1" fill="#e4e6f7" d="M 163.5,72.5 C 162.167,72.5 160.833,72.5 159.5,72.5C 159.5,73.5 159.5,74.5 159.5,75.5C 159.5,77.8333 159.5,80.1667 159.5,82.5C 159.5,87.5 159.5,92.5 159.5,97.5C 158.521,94.3752 158.187,91.0419 158.5,87.5C 154.496,87.3313 151.496,85.498 149.5,82C 145.983,80.076 142.316,78.4094 138.5,77C 134.664,74.5458 134.664,72.2124 138.5,70C 145.805,65.995 152.138,67.1616 157.5,73.5C 159.387,71.4476 161.387,71.1142 163.5,72.5 Z"/></g>
<g><path style="opacity:1" fill="#b0a4c9" d="M 231.5,63.5 C 232.811,67.6829 232.811,72.0162 231.5,76.5C 230.893,76.3764 230.56,76.0431 230.5,75.5C 231.404,74.791 231.737,73.791 231.5,72.5C 229.654,72.7778 228.32,72.1112 227.5,70.5C 228.391,69.4104 229.391,69.4104 230.5,70.5C 231.386,69.675 231.719,68.675 231.5,67.5C 229.897,67.6882 228.563,67.1882 227.5,66C 229.437,65.8784 230.77,65.045 231.5,63.5 Z"/></g>
<g><path style="opacity:1" fill="#a3a9ef" d="M 100.5,57.5 C 97.4992,62.1689 94.4992,66.8355 91.5,71.5C 89.0893,73.2191 86.4227,74.5524 83.5,75.5C 81.2351,75.0603 79.0684,74.3936 77,73.5C 75.4661,69.2891 75.1327,64.9558 76,60.5C 76.5218,57.7187 77.6885,55.3854 79.5,53.5C 79.8441,56.6201 79.1775,59.4534 77.5,62C 77.8333,62.5 78.1667,63 78.5,63.5C 80.4799,61.2052 81.6466,58.5385 82,55.5C 82.7083,54.6195 83.5416,53.9528 84.5,53.5C 83.8535,55.1561 83.1869,56.8228 82.5,58.5C 82.722,60.0554 83.3887,61.3887 84.5,62.5C 82.4798,64.5994 82.1465,66.9327 83.5,69.5C 86.7511,67.625 89.9177,65.625 93,63.5C 93.5968,61.0759 92.7634,59.2425 90.5,58C 93.5951,53.6431 92.9284,50.1431 88.5,47.5C 91.2583,46.0335 90.925,45.3668 87.5,45.5C 88.4919,43.9735 89.9919,43.3068 92,43.5C 94.2527,43.6313 96.4194,44.1313 98.5,45C 100.312,48.922 100.979,53.0887 100.5,57.5 Z"/></g>
<g><path style="opacity:1" fill="#f55bac" d="M 36.5,69.5 C 38.6955,70.9965 41.0288,71.8299 43.5,72C 42.0186,72.9803 40.6853,74.147 39.5,75.5C 38.3914,74.4104 37.3914,74.4104 36.5,75.5C 37.2458,76.7362 37.5792,78.0695 37.5,79.5C 34.2206,78.9694 32.8872,76.9694 33.5,73.5C 34.8571,72.4097 35.8571,71.0764 36.5,69.5 Z"/></g>
<g><path style="opacity:1" fill="#da6da6" d="M 36.5,69.5 C 43.8813,67.8898 46.548,70.8898 44.5,78.5C 41.3955,84.1566 37.5621,84.8233 33,80.5C 32.2042,77.9615 32.3709,75.6282 33.5,73.5C 32.8872,76.9694 34.2206,78.9694 37.5,79.5C 37.5792,78.0695 37.2458,76.7362 36.5,75.5C 37.3914,74.4104 38.3914,74.4104 39.5,75.5C 40.6853,74.147 42.0186,72.9803 43.5,72C 41.0288,71.8299 38.6955,70.9965 36.5,69.5 Z"/></g>
<g><path style="opacity:1" fill="#e5e6f8" d="M 207.5,75.5 C 212.787,77.2532 217.787,79.7532 222.5,83C 223.435,85.3806 223.768,87.8806 223.5,90.5C 221.473,90.6621 219.473,90.4955 217.5,90C 212.963,86.5789 207.963,83.9122 202.5,82C 201.397,80.3196 201.73,78.8196 203.5,77.5C 204.949,76.8281 206.282,76.1614 207.5,75.5 Z"/></g>
<g><path style="opacity:1" fill="#a688e1" d="M 163.5,72.5 C 168.333,75.4696 173.333,78.303 178.5,81C 180.24,82.517 181.906,84.017 183.5,85.5C 179.929,84.3578 176.262,83.6911 172.5,83.5C 172.63,80.7625 171.464,78.7625 169,77.5C 165.906,76.4345 162.74,75.7678 159.5,75.5C 159.5,74.5 159.5,73.5 159.5,72.5C 160.833,72.5 162.167,72.5 163.5,72.5 Z"/></g>
<g><path style="opacity:1" fill="#a582f0" d="M 159.5,75.5 C 162.74,75.7678 165.906,76.4345 169,77.5C 171.464,78.7625 172.63,80.7625 172.5,83.5C 176.262,83.6911 179.929,84.3578 183.5,85.5C 186.485,86.3257 189.151,87.659 191.5,89.5C 187.331,88.777 183.331,87.4437 179.5,85.5C 177.694,86.8587 176.194,86.5254 175,84.5C 174.51,85.7932 174.343,87.1266 174.5,88.5C 177.313,88.0246 179.313,89.0246 180.5,91.5C 177.904,90.7347 175.237,90.4013 172.5,90.5C 172.737,89.209 172.404,88.209 171.5,87.5C 168.833,82.9719 164.833,81.3053 159.5,82.5C 159.5,80.1667 159.5,77.8333 159.5,75.5 Z"/></g>
<g><path style="opacity:1" fill="#a287d7" d="M 159.5,82.5 C 164.833,81.3053 168.833,82.9719 171.5,87.5C 169.456,86.9688 167.789,85.8022 166.5,84C 165.207,83.51 163.873,83.3433 162.5,83.5C 161.544,89.5204 163.877,93.5204 169.5,95.5C 167.167,95.5 164.833,95.5 162.5,95.5C 162.22,98.2724 162.887,100.772 164.5,103C 168.958,105.39 173.624,107.223 178.5,108.5C 178.5,109.5 178.5,110.5 178.5,111.5C 179.5,111.5 180.5,111.5 181.5,111.5C 181.369,112.239 181.536,112.906 182,113.5C 183.878,114.053 185.378,115.053 186.5,116.5C 178.239,112.702 170.239,108.369 162.5,103.5C 161.815,101.586 161.315,99.5856 161,97.5C 160.31,98.7383 159.81,98.7383 159.5,97.5C 159.5,92.5 159.5,87.5 159.5,82.5 Z"/></g>
<g><path style="opacity:1" fill="#e2e9fa" d="M 114.5,103.5 C 114.5,104.167 114.5,104.833 114.5,105.5C 113.99,108.674 112.323,111.008 109.5,112.5C 108.735,112.077 107.902,111.743 107,111.5C 104.629,112.791 102.129,113.791 99.5,114.5C 94.8028,116.269 90.6361,118.936 87,122.5C 85.9302,122.472 85.0968,122.139 84.5,121.5C 83.9717,120.153 83.805,118.819 84,117.5C 87.4783,115.686 90.3116,113.186 92.5,110C 90.1616,108.492 89.1616,106.325 89.5,103.5C 92.3116,101.592 95.3116,99.9252 98.5,98.5C 100.086,96.8273 100.753,94.8273 100.5,92.5C 99.1266,92.3433 97.7932,92.51 96.5,93C 92.8025,95.1795 89.1358,97.3462 85.5,99.5C 84.2438,99.5386 83.2438,99.0386 82.5,98C 84.6175,96.9509 86.2842,95.4509 87.5,93.5C 93.1953,91.2943 98.5286,88.461 103.5,85C 104.337,83.9887 104.67,82.8221 104.5,81.5C 99.107,83.6888 93.7737,86.1888 88.5,89C 85.3558,91.2128 82.3558,93.3795 79.5,95.5C 76.9745,96.6808 74.4745,98.0142 72,99.5C 71.6667,99.1667 71.3333,98.8333 71,98.5C 71.0302,101.361 70.1969,103.695 68.5,105.5C 68.3335,95.1613 68.5002,84.828 69,74.5C 69.4709,72.7536 70.1376,71.087 71,69.5C 71.1145,76.5789 71.7811,83.5789 73,90.5C 73.8333,89.5 74.6667,88.5 75.5,87.5C 78.5402,86.0925 81.5402,84.7591 84.5,83.5C 85.2039,85.3442 86.5372,85.8442 88.5,85C 92.6388,82.689 96.6388,80.189 100.5,77.5C 99.4231,76.2949 98.0898,75.6282 96.5,75.5C 95.8519,73.9142 95.3519,72.2475 95,70.5C 93.9887,71.3366 92.8221,71.67 91.5,71.5C 94.4992,66.8355 97.4992,62.1689 100.5,57.5C 101.625,59.377 101.291,61.2103 99.5,63C 103.569,63.475 107.569,63.8083 111.5,64C 112.309,58.5829 112.809,53.0829 113,47.5C 113.168,66.3378 113.668,85.0045 114.5,103.5 Z"/></g>
<g><path style="opacity:1" fill="#afbcef" d="M 96.5,75.5 C 98.0898,75.6282 99.4231,76.2949 100.5,77.5C 96.6388,80.189 92.6388,82.689 88.5,85C 86.5372,85.8442 85.2039,85.3442 84.5,83.5C 88.4632,80.8465 92.4632,78.1798 96.5,75.5 Z"/></g>
<g><path style="opacity:1" fill="#5c32bb" d="M 60.5,51.5 C 61.5026,62.2197 62.8359,72.8864 64.5,83.5C 64.5,90.1667 64.5,96.8333 64.5,103.5C 62.9318,105.811 62.0984,108.478 62,111.5C 61.8304,100.659 61.3304,89.9921 60.5,79.5C 60.5,70.1667 60.5,60.8333 60.5,51.5 Z"/></g>
<g><path style="opacity:1" fill="#b5c1ef" d="M 87.5,93.5 C 85.4418,94.9331 83.1085,95.5997 80.5,95.5C 80.1667,99.5 79.8333,99.5 79.5,95.5C 82.3558,93.3795 85.3558,91.2128 88.5,89C 93.7737,86.1888 99.107,83.6888 104.5,81.5C 104.67,82.8221 104.337,83.9887 103.5,85C 98.5286,88.461 93.1953,91.2943 87.5,93.5 Z"/></g>
<g><path style="opacity:1" fill="#dfceeb" d="M 171.5,87.5 C 172.404,88.209 172.737,89.209 172.5,90.5C 172.5,92.5 172.5,94.5 172.5,96.5C 172.167,96.5 171.833,96.5 171.5,96.5C 170.833,96.1667 170.167,95.8333 169.5,95.5C 163.877,93.5204 161.544,89.5204 162.5,83.5C 163.873,83.3433 165.207,83.51 166.5,84C 167.789,85.8022 169.456,86.9688 171.5,87.5 Z"/></g>
<g><path style="opacity:1" fill="#8e95d4" d="M 89.5,103.5 C 88.3734,104.122 87.3734,104.955 86.5,106C 82.9124,106.611 81.7458,105.111 83,101.5C 83.9947,100.934 84.828,100.267 85.5,99.5C 89.1358,97.3462 92.8025,95.1795 96.5,93C 97.7932,92.51 99.1266,92.3433 100.5,92.5C 100.753,94.8273 100.086,96.8273 98.5,98.5C 95.3116,99.9252 92.3116,101.592 89.5,103.5 Z"/></g>
<g><path style="opacity:1" fill="#9695aa" d="M 114.5,47.5 C 115.167,58.1667 115.833,68.8333 116.5,79.5C 116.827,89.015 116.494,98.3483 115.5,107.5C 115.672,106.508 115.338,105.842 114.5,105.5C 114.5,104.833 114.5,104.167 114.5,103.5C 114.5,84.8333 114.5,66.1667 114.5,47.5 Z"/></g>
<g><path style="opacity:1" fill="#e4ddf0" d="M 180.5,102.5 C 178.708,102.634 177.042,102.301 175.5,101.5C 173.732,98.8375 173.065,95.8375 173.5,92.5C 179.509,93.0218 181.842,96.3551 180.5,102.5 Z"/></g>
<g><path style="opacity:1" fill="#946dec" d="M 191.5,89.5 C 191.5,90.5 191.5,91.5 191.5,92.5C 196.805,93.0767 198.638,96.0767 197,101.5C 196.617,100.944 196.117,100.611 195.5,100.5C 194.609,99.8902 193.609,99.5569 192.5,99.5C 191.778,99.0825 191.278,98.4158 191,97.5C 189.187,98.6091 188.354,97.9424 188.5,95.5C 189.552,95.6495 190.552,95.4828 191.5,95C 187.661,94.764 183.994,93.9307 180.5,92.5C 180.5,92.1667 180.5,91.8333 180.5,91.5C 179.313,89.0246 177.313,88.0246 174.5,88.5C 174.343,87.1266 174.51,85.7932 175,84.5C 176.194,86.5254 177.694,86.8587 179.5,85.5C 183.331,87.4437 187.331,88.777 191.5,89.5 Z"/></g>
<g><path style="opacity:1" fill="#8b6cc9" d="M 191.5,89.5 C 195.173,91.0002 198.506,93.0002 201.5,95.5C 200.503,95.4701 199.836,95.9701 199.5,97C 200.287,99.0989 200.62,101.266 200.5,103.5C 199.85,103.196 199.183,102.863 198.5,102.5C 197.833,104.5 197.167,106.5 196.5,108.5C 195.52,105.914 195.187,103.247 195.5,100.5C 196.117,100.611 196.617,100.944 197,101.5C 198.638,96.0767 196.805,93.0767 191.5,92.5C 191.5,91.5 191.5,90.5 191.5,89.5 Z"/></g>
<g><path style="opacity:1" fill="#9576d9" d="M 180.5,92.5 C 183.994,93.9307 187.661,94.764 191.5,95C 190.552,95.4828 189.552,95.6495 188.5,95.5C 188.354,97.9424 189.187,98.6091 191,97.5C 191.278,98.4158 191.778,99.0825 192.5,99.5C 192.5,102.167 192.5,104.833 192.5,107.5C 191.59,105.981 190.757,104.315 190,102.5C 187.8,105.05 184.966,106.383 181.5,106.5C 178.724,104.859 175.724,103.359 172.5,102C 171.594,100.301 171.261,98.4672 171.5,96.5C 171.833,96.5 172.167,96.5 172.5,96.5C 171.916,99.285 172.916,100.952 175.5,101.5C 177.042,102.301 178.708,102.634 180.5,102.5C 181.677,104.784 183.344,105.118 185.5,103.5C 185.56,104.043 185.893,104.376 186.5,104.5C 187.641,102.579 187.808,100.579 187,98.5C 185.122,97.9473 183.622,96.9473 182.5,95.5C 181.833,94.5 181.167,93.5 180.5,92.5 Z"/></g>
<g><path style="opacity:1" fill="#9a83c4" d="M 172.5,90.5 C 175.237,90.4013 177.904,90.7347 180.5,91.5C 180.5,91.8333 180.5,92.1667 180.5,92.5C 181.167,93.5 181.833,94.5 182.5,95.5C 181.203,97.6934 181.203,100.027 182.5,102.5C 184.404,98.5564 185.404,98.8897 185.5,103.5C 183.344,105.118 181.677,104.784 180.5,102.5C 181.842,96.3551 179.509,93.0218 173.5,92.5C 173.065,95.8375 173.732,98.8375 175.5,101.5C 172.916,100.952 171.916,99.285 172.5,96.5C 172.5,94.5 172.5,92.5 172.5,90.5 Z"/></g>
<g><path style="opacity:1" fill="#7d61ba" d="M 64.5,71.5 C 64.8333,71.5 65.1667,71.5 65.5,71.5C 65.5,88.5 65.5,105.5 65.5,122.5C 65.5,123.833 64.8333,124.5 63.5,124.5C 64.4621,117.588 64.7955,110.588 64.5,103.5C 64.5,96.8333 64.5,90.1667 64.5,83.5C 64.5,79.5 64.5,75.5 64.5,71.5 Z"/></g>
<g><path style="opacity:1" fill="#f8ebfd" d="M 182.5,95.5 C 183.622,96.9473 185.122,97.9473 187,98.5C 187.808,100.579 187.641,102.579 186.5,104.5C 185.893,104.376 185.56,104.043 185.5,103.5C 185.404,98.8897 184.404,98.5564 182.5,102.5C 181.203,100.027 181.203,97.6934 182.5,95.5 Z"/></g>
<g><path style="opacity:1" fill="#895df1" d="M 201.5,95.5 C 201.915,97.7468 202.582,99.9135 203.5,102C 203.318,104.578 202.318,105.078 200.5,103.5C 200.62,101.266 200.287,99.0989 199.5,97C 199.836,95.9701 200.503,95.4701 201.5,95.5 Z"/></g>
<g><path style="opacity:1" fill="#d5a2be" d="M 231.5,95.5 C 235.109,96.6378 238.442,98.3044 241.5,100.5C 240.167,100.5 239.5,101.167 239.5,102.5C 238.839,103.718 238.172,105.051 237.5,106.5C 235.306,104.685 234.972,102.518 236.5,100C 235.552,99.5172 234.552,99.3505 233.5,99.5C 232.659,103.575 233.992,106.575 237.5,108.5C 237.5,109.167 237.5,109.833 237.5,110.5C 235.947,108.615 233.947,107.615 231.5,107.5C 231.5,103.5 231.5,99.5 231.5,95.5 Z"/></g>
<g><path style="opacity:1" fill="#8664d1" d="M 201.5,95.5 C 204.089,95.461 206.089,96.461 207.5,98.5C 207.5,99.1667 207.5,99.8333 207.5,100.5C 208.344,104.099 208.677,107.766 208.5,111.5C 207.833,111.5 207.5,111.167 207.5,110.5C 205.91,108.179 203.577,107.179 200.5,107.5C 200.5,106.167 200.5,104.833 200.5,103.5C 202.318,105.078 203.318,104.578 203.5,102C 202.582,99.9135 201.915,97.7468 201.5,95.5 Z"/></g>
<g><path style="opacity:1" fill="#9684be" d="M 207.5,98.5 C 208.458,98.9528 209.292,99.6195 210,100.5C 210.824,109.676 210.657,118.676 209.5,127.5C 209.666,118.827 209.5,110.16 209,101.5C 208.617,100.944 208.117,100.611 207.5,100.5C 207.5,99.8333 207.5,99.1667 207.5,98.5 Z"/></g>
<g><path style="opacity:1" fill="#966fed" d="M 169.5,95.5 C 170.167,95.8333 170.833,96.1667 171.5,96.5C 171.261,98.4672 171.594,100.301 172.5,102C 175.724,103.359 178.724,104.859 181.5,106.5C 181.5,108.167 181.5,109.833 181.5,111.5C 180.5,111.5 179.5,111.5 178.5,111.5C 178.5,110.5 178.5,109.5 178.5,108.5C 173.624,107.223 168.958,105.39 164.5,103C 162.887,100.772 162.22,98.2724 162.5,95.5C 164.833,95.5 167.167,95.5 169.5,95.5 Z"/></g>
<g><path style="opacity:1" fill="#fdd1f2" d="M 239.5,102.5 C 241.266,105.467 240.599,107.467 237.5,108.5C 233.992,106.575 232.659,103.575 233.5,99.5C 234.552,99.3505 235.552,99.5172 236.5,100C 234.972,102.518 235.306,104.685 237.5,106.5C 238.172,105.051 238.839,103.718 239.5,102.5 Z"/></g>
<g><path style="opacity:1" fill="#e7daf2" d="M 192.5,99.5 C 193.609,99.5569 194.609,99.8902 195.5,100.5C 195.187,103.247 195.52,105.914 196.5,108.5C 197.167,106.5 197.833,104.5 198.5,102.5C 199.183,102.863 199.85,103.196 200.5,103.5C 200.5,104.833 200.5,106.167 200.5,107.5C 200.5,108.833 200.5,110.167 200.5,111.5C 197.148,111.47 194.482,110.137 192.5,107.5C 192.5,104.833 192.5,102.167 192.5,99.5 Z"/></g>
<g><path style="opacity:1" fill="#e273ac" d="M 241.5,100.5 C 244.77,102.474 248.103,104.474 251.5,106.5C 252.489,110.107 252.823,113.774 252.5,117.5C 251.127,117.657 249.793,117.49 248.5,117C 245.09,114.628 241.423,112.795 237.5,111.5C 237.5,111.167 237.5,110.833 237.5,110.5C 237.5,109.833 237.5,109.167 237.5,108.5C 240.599,107.467 241.266,105.467 239.5,102.5C 239.5,101.167 240.167,100.5 241.5,100.5 Z"/></g>
<g><path style="opacity:1" fill="#7161ac" d="M 59.5,79.5 C 59.8333,79.5 60.1667,79.5 60.5,79.5C 60.1703,95.6754 60.5036,111.675 61.5,127.5C 61.1583,128.338 60.4916,128.672 59.5,128.5C 59.5,128.167 59.5,127.833 59.5,127.5C 59.5,122.167 59.5,116.833 59.5,111.5C 59.5,100.833 59.5,90.1667 59.5,79.5 Z"/></g>
<g><path style="opacity:1" fill="#ecca7a" d="M 162.5,103.5 C 162.88,108.073 161.547,112.073 158.5,115.5C 157.516,118.428 157.183,121.428 157.5,124.5C 156.504,124.586 155.671,124.252 155,123.5C 154.503,119.476 154.669,115.476 155.5,111.5C 158.042,109.073 159.542,106.073 160,102.5C 160.671,103.252 161.504,103.586 162.5,103.5 Z"/></g>
<g><path style="opacity:1" fill="#d2def8" d="M 66.5,47.5 C 66.167,68.8437 66.5003,90.1771 67.5,111.5C 68.4656,109.604 68.7989,107.604 68.5,105.5C 70.1969,103.695 71.0302,101.361 71,98.5C 71.3333,98.8333 71.6667,99.1667 72,99.5C 74.4745,98.0142 76.9745,96.6808 79.5,95.5C 79.8333,99.5 80.1667,99.5 80.5,95.5C 83.1085,95.5997 85.4418,94.9331 87.5,93.5C 86.2842,95.4509 84.6175,96.9509 82.5,98C 83.2438,99.0386 84.2438,99.5386 85.5,99.5C 84.828,100.267 83.9947,100.934 83,101.5C 81.7458,105.111 82.9124,106.611 86.5,106C 87.3734,104.955 88.3734,104.122 89.5,103.5C 89.1616,106.325 90.1616,108.492 92.5,110C 90.3116,113.186 87.4783,115.686 84,117.5C 83.805,118.819 83.9717,120.153 84.5,121.5C 83.7011,123.739 82.3678,125.739 80.5,127.5C 77.5573,123.509 75.8906,119.009 75.5,114C 76.0535,112.449 76.7202,110.949 77.5,109.5C 77.4435,108.263 76.9435,107.263 76,106.5C 74.6796,112.018 73.513,117.685 72.5,123.5C 72.3647,125.808 73.0314,127.808 74.5,129.5C 72.4197,130.528 72.0864,131.862 73.5,133.5C 72.2426,134.623 72.5759,135.289 74.5,135.5C 73.032,136.779 72.3653,138.446 72.5,140.5C 69.6146,140.806 66.9479,140.473 64.5,139.5C 66.9311,138.393 67.9311,136.393 67.5,133.5C 66.5628,130.291 66.5628,127.125 67.5,124C 67.1639,122.97 66.4972,122.47 65.5,122.5C 65.5,105.5 65.5,88.5 65.5,71.5C 65.1743,63.3159 65.5076,55.3159 66.5,47.5 Z"/></g>
<g><path style="opacity:1" fill="#c9dcf0" d="M 59.5,111.5 C 59.5,116.833 59.5,122.167 59.5,127.5C 58.1779,127.33 57.0113,127.663 56,128.5C 55.6667,126.5 55.3333,124.5 55,122.5C 54.8198,125.956 54.1532,129.289 53,132.5C 52.6174,131.944 52.1174,131.611 51.5,131.5C 49.9743,132.105 48.9743,133.271 48.5,135C 44.2538,135.651 40.5871,134.484 37.5,131.5C 39.7695,130.995 41.1028,129.662 41.5,127.5C 42.322,125.611 43.1553,123.611 44,121.5C 45.3772,125.265 46.3772,124.932 47,120.5C 47.3333,120.833 47.6667,121.167 48,121.5C 48.6449,120.354 49.4783,119.354 50.5,118.5C 50.2077,116.644 50.2077,114.978 50.5,113.5C 48.2336,111.807 47.9003,109.64 49.5,107C 54.2503,105.624 57.5837,107.124 59.5,111.5 Z"/></g>
<g><path style="opacity:1" fill="#482597" d="M 60.5,79.5 C 61.3304,89.9921 61.8304,100.659 62,111.5C 62.0984,108.478 62.9318,105.811 64.5,103.5C 64.7955,110.588 64.4621,117.588 63.5,124.5C 62.8333,125.5 62.1667,126.5 61.5,127.5C 60.5036,111.675 60.1703,95.6754 60.5,79.5 Z"/></g>
<g><path style="opacity:1" fill="#483182" d="M 153.5,111.5 C 153.5,113.167 153.5,114.833 153.5,116.5C 151.744,117.552 151.077,119.219 151.5,121.5C 149.167,121.5 146.833,121.5 144.5,121.5C 144.337,119.143 144.503,116.81 145,114.5C 145.933,110.505 147.6,106.838 150,103.5C 151.667,102.167 153.333,102.167 155,103.5C 155.326,106.332 154.826,108.999 153.5,111.5 Z"/></g>
<g><path style="opacity:1" fill="#dfdefb" d="M 84.5,121.5 C 85.0968,122.139 85.9302,122.472 87,122.5C 90.6361,118.936 94.8028,116.269 99.5,114.5C 102.129,113.791 104.629,112.791 107,111.5C 107.902,111.743 108.735,112.077 109.5,112.5C 97.8958,119.976 85.8958,126.976 73.5,133.5C 72.0864,131.862 72.4197,130.528 74.5,129.5C 73.0314,127.808 72.3647,125.808 72.5,123.5C 73.513,117.685 74.6796,112.018 76,106.5C 76.9435,107.263 77.4435,108.263 77.5,109.5C 76.7202,110.949 76.0535,112.449 75.5,114C 75.8906,119.009 77.5573,123.509 80.5,127.5C 82.3678,125.739 83.7011,123.739 84.5,121.5 Z"/></g>
<g><path style="opacity:1" fill="#805cd1" d="M 192.5,107.5 C 194.482,110.137 197.148,111.47 200.5,111.5C 198.955,118.009 201.455,120.009 208,117.5C 208.498,120.817 208.665,124.15 208.5,127.5C 207.5,127.5 206.5,127.5 205.5,127.5C 198.668,124.588 192.334,120.921 186.5,116.5C 185.378,115.053 183.878,114.053 182,113.5C 181.536,112.906 181.369,112.239 181.5,111.5C 181.5,109.833 181.5,108.167 181.5,106.5C 184.966,106.383 187.8,105.05 190,102.5C 190.757,104.315 191.59,105.981 192.5,107.5 Z"/></g>
<g><path style="opacity:1" fill="#e7e8f8" d="M 231.5,95.5 C 231.5,99.5 231.5,103.5 231.5,107.5C 233.947,107.615 235.947,108.615 237.5,110.5C 237.5,110.833 237.5,111.167 237.5,111.5C 235.508,111.672 233.842,111.005 232.5,109.5C 231.167,110.833 231.167,112.167 232.5,113.5C 236.053,116.444 240.053,118.61 244.5,120C 246.015,121.726 247.682,123.226 249.5,124.5C 245.772,127.601 241.605,128.268 237,126.5C 235.383,127.536 235.216,128.703 236.5,130C 235.552,130.483 234.552,130.649 233.5,130.5C 232.965,128.554 231.632,127.554 229.5,127.5C 229.36,125.876 230.027,124.71 231.5,124C 228.952,121.558 225.952,119.892 222.5,119C 221.978,118.439 221.645,117.772 221.5,117C 223.627,115.098 225.96,113.431 228.5,112C 227.833,111.667 227.167,111.333 226.5,111C 231.255,108.011 231.589,104.678 227.5,101C 228.682,98.9954 230.015,97.1621 231.5,95.5 Z"/></g>
<g><path style="opacity:1" fill="#775eb0" d="M 207.5,100.5 C 208.117,100.611 208.617,100.944 209,101.5C 209.5,110.16 209.666,118.827 209.5,127.5C 208.167,128.833 206.833,128.833 205.5,127.5C 206.5,127.5 207.5,127.5 208.5,127.5C 208.665,124.15 208.498,120.817 208,117.5C 201.455,120.009 198.955,118.009 200.5,111.5C 200.5,110.167 200.5,108.833 200.5,107.5C 203.577,107.179 205.91,108.179 207.5,110.5C 205.862,109.841 204.195,109.174 202.5,108.5C 202.167,109 201.833,109.5 201.5,110C 202.007,112.541 202.674,115.041 203.5,117.5C 204.192,116.975 204.692,116.308 205,115.5C 206,116.833 207,116.833 208,115.5C 208.49,114.207 208.657,112.873 208.5,111.5C 208.677,107.766 208.344,104.099 207.5,100.5 Z"/></g>
<g><path style="opacity:1" fill="#eae1f5" d="M 207.5,110.5 C 207.5,111.167 207.833,111.5 208.5,111.5C 208.657,112.873 208.49,114.207 208,115.5C 207,116.833 206,116.833 205,115.5C 204.692,116.308 204.192,116.975 203.5,117.5C 202.674,115.041 202.007,112.541 201.5,110C 201.833,109.5 202.167,109 202.5,108.5C 204.195,109.174 205.862,109.841 207.5,110.5 Z"/></g>
<g><path style="opacity:1" fill="#615986" d="M 114.5,105.5 C 115.338,105.842 115.672,106.508 115.5,107.5C 115.5,108.167 115.5,108.833 115.5,109.5C 113.833,111.833 111.833,113.833 109.5,115.5C 97.6979,121.902 86.0312,128.569 74.5,135.5C 72.5759,135.289 72.2426,134.623 73.5,133.5C 85.8958,126.976 97.8958,119.976 109.5,112.5C 112.323,111.008 113.99,108.674 114.5,105.5 Z"/></g>
<g><path style="opacity:1" fill="#e5e0f3" d="M 50.5,113.5 C 50.2077,114.978 50.2077,116.644 50.5,118.5C 49.4783,119.354 48.6449,120.354 48,121.5C 47.6667,121.167 47.3333,120.833 47,120.5C 46.3772,124.932 45.3772,125.265 44,121.5C 43.1553,123.611 42.322,125.611 41.5,127.5C 39.5,127.5 37.5,127.5 35.5,127.5C 35.5,125.167 35.5,122.833 35.5,120.5C 38.8933,119.633 42.2266,119.466 45.5,120C 44.5562,117.281 44.2229,114.448 44.5,111.5C 45.5,111.5 46.5,111.5 47.5,111.5C 47.5,112.5 47.5,113.5 47.5,114.5C 48.791,114.737 49.791,114.404 50.5,113.5 Z"/></g>
<g><path style="opacity:1" fill="#603661" d="M 153.5,116.5 C 153.023,118.338 152.69,120.172 152.5,122C 150.527,122.495 148.527,122.662 146.5,122.5C 145.508,122.672 144.842,122.338 144.5,121.5C 146.833,121.5 149.167,121.5 151.5,121.5C 151.077,119.219 151.744,117.552 153.5,116.5 Z"/></g>
<g><path style="opacity:1" fill="#c38f83" d="M 153.5,111.5 C 154.167,111.5 154.833,111.5 155.5,111.5C 154.669,115.476 154.503,119.476 155,123.5C 155.671,124.252 156.504,124.586 157.5,124.5C 157.5,124.833 157.5,125.167 157.5,125.5C 155.167,125.5 152.833,125.5 150.5,125.5C 150.611,124.883 150.944,124.383 151.5,124C 149.618,123.802 147.952,123.302 146.5,122.5C 148.527,122.662 150.527,122.495 152.5,122C 152.69,120.172 153.023,118.338 153.5,116.5C 153.5,114.833 153.5,113.167 153.5,111.5 Z"/></g>
<g><path style="opacity:1" fill="#e4e6f8" d="M 115.5,109.5 C 116.93,112.825 115.93,115.325 112.5,117C 115.167,117.667 115.167,118.333 112.5,119C 116.736,120.945 120.403,123.612 123.5,127C 118.662,130.585 113.662,133.918 108.5,137C 103.365,138.791 98.6988,141.458 94.5,145C 88.8556,147.822 83.1889,150.656 77.5,153.5C 75.7951,152.455 74.2951,151.122 73,149.5C 71.5212,144.36 73.6878,141.36 79.5,140.5C 79.281,139.325 79.6143,138.325 80.5,137.5C 90.1513,133.009 99.4847,128.009 108.5,122.5C 110.102,121.399 111.102,119.899 111.5,118C 111.316,116.624 110.649,115.791 109.5,115.5C 111.833,113.833 113.833,111.833 115.5,109.5 Z"/></g>
<g><path style="opacity:1" fill="#ccbfd8" d="M 150.5,125.5 C 150.5,125.833 150.5,126.167 150.5,126.5C 150.5,127.167 150.167,127.5 149.5,127.5C 148.833,130.833 148.167,134.167 147.5,137.5C 147.789,133.894 147.456,130.394 146.5,127C 147.901,126.59 149.234,126.09 150.5,125.5 Z"/></g>
<g><path style="opacity:1" fill="#3d3254" d="M 229.5,127.5 C 231.632,127.554 232.965,128.554 233.5,130.5C 231.609,129.464 229.776,129.464 228,130.5C 227.415,129.002 227.915,128.002 229.5,127.5 Z"/></g>
<g><path style="opacity:1" fill="#e3e6f8" d="M 158.5,141.5 C 158.821,135.974 158.488,130.64 157.5,125.5C 157.5,125.167 157.5,124.833 157.5,124.5C 158.712,123.77 159.712,122.77 160.5,121.5C 169.837,125.343 178.504,130.51 186.5,137C 192.088,138.752 197.422,141.085 202.5,144C 204.439,144.908 205.439,146.408 205.5,148.5C 201.695,149.903 198.029,151.57 194.5,153.5C 189.691,151.595 185.025,149.428 180.5,147C 173.873,142.439 167.04,138.273 160,134.5C 159.814,137.036 159.314,139.369 158.5,141.5 Z"/></g>
<g><path style="opacity:1" fill="#452c8d" d="M 150.5,126.5 C 154.838,126.622 155.172,126.955 151.5,127.5C 151.51,132.915 152.177,138.248 153.5,143.5C 155.959,124.97 156.793,124.97 156,143.5C 155.578,145.426 154.411,146.426 152.5,146.5C 151.609,145.89 150.609,145.557 149.5,145.5C 149.5,139.5 149.5,133.5 149.5,127.5C 150.167,127.5 150.5,127.167 150.5,126.5 Z"/></g>
<g><path style="opacity:1" fill="#463573" d="M 149.5,127.5 C 149.5,133.5 149.5,139.5 149.5,145.5C 148.167,145.5 146.833,145.5 145.5,145.5C 146.371,142.888 147.037,140.221 147.5,137.5C 148.167,134.167 148.833,130.833 149.5,127.5 Z"/></g>
<g><path style="opacity:1" fill="#48327f" d="M 150.5,126.5 C 150.5,126.167 150.5,125.833 150.5,125.5C 152.833,125.5 155.167,125.5 157.5,125.5C 158.488,130.64 158.821,135.974 158.5,141.5C 158.233,143.965 157.566,146.299 156.5,148.5C 154.517,148.843 153.183,148.176 152.5,146.5C 154.411,146.426 155.578,145.426 156,143.5C 156.793,124.97 155.959,124.97 153.5,143.5C 152.177,138.248 151.51,132.915 151.5,127.5C 155.172,126.955 154.838,126.622 150.5,126.5 Z"/></g>
<g><path style="opacity:1" fill="#c2c6ef" d="M 65.5,122.5 C 66.4972,122.47 67.1639,122.97 67.5,124C 66.5628,127.125 66.5628,130.291 67.5,133.5C 67.9311,136.393 66.9311,138.393 64.5,139.5C 63.4181,137.661 62.5847,135.661 62,133.5C 61.586,133.957 61.086,134.291 60.5,134.5C 59.5344,132.604 59.2011,130.604 59.5,128.5C 60.4916,128.672 61.1583,128.338 61.5,127.5C 62.1667,126.5 62.8333,125.5 63.5,124.5C 64.8333,124.5 65.5,123.833 65.5,122.5 Z"/></g>
<g><path style="opacity:1" fill="#aba8b1" d="M 59.5,127.5 C 59.5,127.833 59.5,128.167 59.5,128.5C 57.1104,128.685 56.1104,130.018 56.5,132.5C 57.749,137.504 57.749,142.504 56.5,147.5C 55.1667,147.5 53.8333,147.5 52.5,147.5C 52.7335,142.105 52.4002,136.772 51.5,131.5C 52.1174,131.611 52.6174,131.944 53,132.5C 54.1532,129.289 54.8198,125.956 55,122.5C 55.3333,124.5 55.6667,126.5 56,128.5C 57.0113,127.663 58.1779,127.33 59.5,127.5 Z"/></g>
<g><path style="opacity:1" fill="#f9b054" d="M 223.5,137.5 C 227.182,137.335 230.848,137.501 234.5,138C 235.337,139.011 235.67,140.178 235.5,141.5C 233.784,141.629 232.117,141.962 230.5,142.5C 228.393,141.532 226.059,141.198 223.5,141.5C 223.5,140.5 223.5,139.5 223.5,138.5C 223.5,138.167 223.5,137.833 223.5,137.5 Z"/></g>
<g><path style="opacity:1" fill="#efd47a" d="M 223.5,137.5 C 234.86,133.531 240.194,137.531 239.5,149.5C 238.5,149.5 237.5,149.5 236.5,149.5C 236.5,147.5 236.5,145.5 236.5,143.5C 234.5,143.5 232.5,143.5 230.5,143.5C 230.5,143.167 230.5,142.833 230.5,142.5C 232.117,141.962 233.784,141.629 235.5,141.5C 235.67,140.178 235.337,139.011 234.5,138C 230.848,137.501 227.182,137.335 223.5,137.5 Z"/></g>
<g><path style="opacity:1" fill="#e4a778" d="M 223.5,138.5 C 223.5,139.5 223.5,140.5 223.5,141.5C 226.059,141.198 228.393,141.532 230.5,142.5C 230.5,142.833 230.5,143.167 230.5,143.5C 228.167,143.5 225.833,143.5 223.5,143.5C 223.5,145.5 223.5,147.5 223.5,149.5C 222.5,149.5 221.5,149.5 220.5,149.5C 220.335,146.482 220.502,143.482 221,140.5C 221.708,139.619 222.542,138.953 223.5,138.5 Z"/></g>
<g><path style="opacity:1" fill="#e881b7" d="M 52.5,147.5 C 53.8333,147.5 55.1667,147.5 56.5,147.5C 57.4916,147.328 58.1583,147.662 58.5,148.5C 55.8333,148.5 53.1667,148.5 50.5,148.5C 50.5,149.833 50.5,151.167 50.5,152.5C 51.8333,152.5 53.1667,152.5 54.5,152.5C 54.67,153.822 54.3366,154.989 53.5,156C 55.5433,156.64 57.2099,156.14 58.5,154.5C 58.6399,156.124 57.9733,157.29 56.5,158C 54.5,158.667 52.5,158.667 50.5,158C 49.5442,154.606 49.2108,151.106 49.5,147.5C 50.5,147.5 51.5,147.5 52.5,147.5 Z"/></g>
<g><path style="opacity:1" fill="#f3539c" d="M 58.5,148.5 C 58.5,150.5 58.5,152.5 58.5,154.5C 57.2099,156.14 55.5433,156.64 53.5,156C 54.3366,154.989 54.67,153.822 54.5,152.5C 53.1667,152.5 51.8333,152.5 50.5,152.5C 50.5,151.167 50.5,149.833 50.5,148.5C 53.1667,148.5 55.8333,148.5 58.5,148.5 Z"/></g>
<g><path style="opacity:1" fill="#48465c" d="M 144.5,153.5 C 146.026,154.105 147.026,155.271 147.5,157C 145.846,157.196 144.846,156.363 144.5,154.5C 144.5,154.167 144.5,153.833 144.5,153.5 Z"/></g>
<g><path style="opacity:1" fill="#45336d" d="M 233.5,155.5 C 233.389,154.883 233.056,154.383 232.5,154C 229.11,153.754 225.777,153.254 222.5,152.5C 219.852,154.206 219.852,155.872 222.5,157.5C 221.432,158.434 220.099,158.768 218.5,158.5C 217.957,158.44 217.624,158.107 217.5,157.5C 218.154,155.885 218.654,154.218 219,152.5C 220.062,151.903 221.228,151.57 222.5,151.5C 228.179,152.594 233.845,152.76 239.5,152C 241.55,153.636 242.55,155.802 242.5,158.5C 240.833,158.5 239.167,158.5 237.5,158.5C 237.5,157.5 237.5,156.5 237.5,155.5C 236.167,155.5 234.833,155.5 233.5,155.5 Z"/></g>
<g><path style="opacity:1" fill="#432e84" d="M 233.5,155.5 C 232.596,156.209 232.263,157.209 232.5,158.5C 229.252,158.099 226.085,157.432 223,156.5C 222.601,156.728 222.435,157.062 222.5,157.5C 219.852,155.872 219.852,154.206 222.5,152.5C 225.777,153.254 229.11,153.754 232.5,154C 233.056,154.383 233.389,154.883 233.5,155.5 Z"/></g>
<g><path style="opacity:1" fill="#474362" d="M 154.5,155.5 C 154.5,156.833 155.167,157.5 156.5,157.5C 154.907,158.867 153.574,158.534 152.5,156.5C 152.957,155.702 153.624,155.369 154.5,155.5 Z"/></g>
<g><path style="opacity:1" fill="#e3e0ee" d="M 145.5,145.5 C 146.833,145.5 148.167,145.5 149.5,145.5C 150.609,145.557 151.609,145.89 152.5,146.5C 153.183,148.176 154.517,148.843 156.5,148.5C 155.272,150.01 155.272,151.51 156.5,153C 155.244,153.417 154.577,154.25 154.5,155.5C 153.624,155.369 152.957,155.702 152.5,156.5C 153.574,158.534 154.907,158.867 156.5,157.5C 157.552,157.351 158.552,157.517 159.5,158C 158.167,158.667 158.167,159.333 159.5,160C 152.354,162.971 145.02,163.304 137.5,161C 135.893,159.951 135.227,158.451 135.5,156.5C 138.583,156.084 141.583,155.417 144.5,154.5C 144.846,156.363 145.846,157.196 147.5,157C 147.026,155.271 146.026,154.105 144.5,153.5C 144.918,152.778 145.584,152.278 146.5,152C 145.577,149.959 145.244,147.792 145.5,145.5 Z"/></g>
<g><path style="opacity:1" fill="#c0add9" d="M 233.5,155.5 C 233.5,156.833 233.5,158.167 233.5,159.5C 228.339,158.585 223.339,158.251 218.5,158.5C 220.099,158.768 221.432,158.434 222.5,157.5C 222.435,157.062 222.601,156.728 223,156.5C 226.085,157.432 229.252,158.099 232.5,158.5C 232.263,157.209 232.596,156.209 233.5,155.5 Z"/></g>
<g><path style="opacity:1" fill="#ebb4d0" d="M 106.5,165.5 C 107.623,163.482 107.623,161.482 106.5,159.5C 103.126,158.249 99.7926,158.249 96.5,159.5C 97.8714,158.213 99.7047,157.547 102,157.5C 103.833,157.833 105.667,158.167 107.5,158.5C 109.078,161.25 108.745,163.583 106.5,165.5 Z"/></g>
<g><path style="opacity:1" fill="#de80b5" d="M 106.5,165.5 C 104.738,165.357 103.071,165.691 101.5,166.5C 99.8849,165.846 98.2182,165.346 96.5,165C 95.193,163.057 95.193,161.223 96.5,159.5C 99.7926,158.249 103.126,158.249 106.5,159.5C 107.623,161.482 107.623,163.482 106.5,165.5 Z"/></g>
<g><path style="opacity:1" fill="#f366b4" d="M 98.5,159.5 C 100.833,159.5 103.167,159.5 105.5,159.5C 105.5,161.167 105.5,162.833 105.5,164.5C 102.753,164.813 100.086,164.48 97.5,163.5C 98.0253,162.808 98.6919,162.308 99.5,162C 98.7476,161.329 98.4142,160.496 98.5,159.5 Z"/></g>
<g><path style="opacity:1" fill="#f2d167" d="M 71.5,159.5 C 73.1667,159.5 74.8333,159.5 76.5,159.5C 74.9646,161.052 73.1313,162.385 71,163.5C 70.4054,164.899 70.5721,166.232 71.5,167.5C 70.9953,168.919 69.9953,169.585 68.5,169.5C 67.3065,169.03 66.6399,168.03 66.5,166.5C 66.6667,165.5 66.8333,164.5 67,163.5C 68.6985,162.259 70.1985,160.926 71.5,159.5 Z"/></g>
<g><path style="opacity:1" fill="#ecc17b" d="M 78.5,159.5 C 82.2407,158.599 84.2407,159.932 84.5,163.5C 84.7076,165.92 84.3742,168.253 83.5,170.5C 78.3726,173.087 73.3726,173.087 68.5,170.5C 72.9017,170.772 77.2351,170.439 81.5,169.5C 82.6309,167.926 82.7975,166.259 82,164.5C 80.6134,162.953 79.4467,161.287 78.5,159.5 Z"/></g>
<g><path style="opacity:1" fill="#f1b454" d="M 76.5,159.5 C 77.1667,159.5 77.8333,159.5 78.5,159.5C 79.4467,161.287 80.6134,162.953 82,164.5C 82.7975,166.259 82.6309,167.926 81.5,169.5C 77.2351,170.439 72.9017,170.772 68.5,170.5C 68.5,170.167 68.5,169.833 68.5,169.5C 69.9953,169.585 70.9953,168.919 71.5,167.5C 70.5721,166.232 70.4054,164.899 71,163.5C 73.1313,162.385 74.9646,161.052 76.5,159.5 Z"/></g>
<g><path style="opacity:1" fill="#d67ba4" d="M 181.5,163.5 C 182.922,165.512 184.255,167.512 185.5,169.5C 180.737,166.521 175.737,166.021 170.5,168C 167.833,169.667 167.833,171.333 170.5,173C 173.168,173.567 175.834,174.067 178.5,174.5C 178.285,176.179 178.952,177.179 180.5,177.5C 176.658,178.539 172.658,178.539 168.5,177.5C 168.672,176.508 168.338,175.842 167.5,175.5C 166.5,175.5 165.5,175.5 164.5,175.5C 163.702,166.464 167.869,162.13 177,162.5C 178.707,162.508 180.207,162.842 181.5,163.5 Z"/></g>
<g><path style="opacity:1" fill="#efeff9" d="M 185.5,169.5 C 185.489,171.017 184.823,172.184 183.5,173C 181.618,173.198 179.952,173.698 178.5,174.5C 175.834,174.067 173.168,173.567 170.5,173C 167.833,171.333 167.833,169.667 170.5,168C 175.737,166.021 180.737,166.521 185.5,169.5 Z"/></g>
<g><path style="opacity:1" fill="#f9f1d4" d="M 71.5,159.5 C 70.1985,160.926 68.6985,162.259 67,163.5C 66.8333,164.5 66.6667,165.5 66.5,166.5C 66.6399,168.03 67.3065,169.03 68.5,169.5C 68.5,169.833 68.5,170.167 68.5,170.5C 73.3726,173.087 78.3726,173.087 83.5,170.5C 84.3742,168.253 84.7076,165.92 84.5,163.5C 85.5,163.5 86.5,163.5 87.5,163.5C 87.6646,166.518 87.498,169.518 87,172.5C 86.6121,173.428 85.9454,174.095 85,174.5C 78.9089,175.066 72.7422,175.066 66.5,174.5C 65.3338,169.497 65.3338,164.497 66.5,159.5C 68.1667,159.5 69.8333,159.5 71.5,159.5 Z"/></g>
<g><path style="opacity:1" fill="#983f61" d="M 181.5,163.5 C 182.609,163.557 183.609,163.89 184.5,164.5C 187.305,167.246 188.139,170.579 187,174.5C 185.266,176.451 183.099,177.451 180.5,177.5C 178.952,177.179 178.285,176.179 178.5,174.5C 179.952,173.698 181.618,173.198 183.5,173C 184.823,172.184 185.489,171.017 185.5,169.5C 184.255,167.512 182.922,165.512 181.5,163.5 Z"/></g>
<g><path style="opacity:1" fill="#f5c679" d="M 161.5,175.5 C 161.414,176.496 161.748,177.329 162.5,178C 164.134,178.494 165.801,178.66 167.5,178.5C 167.5,177.5 167.5,176.5 167.5,175.5C 168.338,175.842 168.672,176.508 168.5,177.5C 168.5,177.833 168.5,178.167 168.5,178.5C 165.118,182.135 160.785,184.135 155.5,184.5C 154.713,182.896 153.38,182.229 151.5,182.5C 153.482,179.863 156.148,178.53 159.5,178.5C 159.285,176.821 159.952,175.821 161.5,175.5 Z"/></g>
<g><path style="opacity:1" fill="#f5d854" d="M 161.5,175.5 C 162.5,175.5 163.5,175.5 164.5,175.5C 165.5,175.5 166.5,175.5 167.5,175.5C 167.5,176.5 167.5,177.5 167.5,178.5C 165.801,178.66 164.134,178.494 162.5,178C 161.748,177.329 161.414,176.496 161.5,175.5 Z"/></g>
<g><path style="opacity:1" fill="#f6daea" d="M 184.5,164.5 C 188.343,165.688 190.343,168.355 190.5,172.5C 189.05,173.85 188.383,175.516 188.5,177.5C 181.873,179.498 175.206,179.831 168.5,178.5C 168.5,178.167 168.5,177.833 168.5,177.5C 172.658,178.539 176.658,178.539 180.5,177.5C 183.099,177.451 185.266,176.451 187,174.5C 188.139,170.579 187.305,167.246 184.5,164.5 Z"/></g>
<g><path style="opacity:1" fill="#bc5f7b" d="M 151.5,182.5 C 153.38,182.229 154.713,182.896 155.5,184.5C 154.952,187.084 153.285,188.084 150.5,187.5C 150.216,185.585 150.549,183.919 151.5,182.5 Z"/></g>
</svg>
